<svg width="118" height="65" viewBox="0 0 118 65" fill="none" xmlns="http://www.w3.org/2000/svg">
<rect opacity="0.12" x="46" y="-8" width="71" height="18" fill="#F72F72"/>
<rect opacity="0.12" x="63" y="10" width="54" height="18" fill="#F72F72"/>
<rect opacity="0.12" x="77" y="28" width="40" height="18" fill="#F72F72"/>
<rect opacity="0.12" x="97" y="46" width="20" height="18" fill="#F72F72"/>
<path d="M0.269531 -35.0234L4.33594 -41.1992H5.49609V-35.0469H6.67969V-33.9453H5.49609V-31.9062H4.16016V-33.9453H0.269531V-35.0234ZM1.54688 -35.0469H4.16016V-37.9062C4.16016 -38.3516 4.17578 -38.7812 4.20703 -39.1953H4.16016C4.07422 -39.0391 3.94141 -38.8203 3.76172 -38.5391C3.58984 -38.2578 3.49219 -38.0977 3.46875 -38.0586L1.54688 -35.0469ZM6.87906 -33.7578L7.95719 -34.1562C8.35563 -33.3125 8.96891 -32.8906 9.79703 -32.8906C10.2814 -32.8906 10.6838 -33.0352 11.0041 -33.3242C11.3322 -33.6211 11.4963 -34.0391 11.4963 -34.5781C11.4963 -35.0781 11.3166 -35.4766 10.9572 -35.7734C10.6056 -36.0703 10.1603 -36.2188 9.62125 -36.2188C9.39469 -36.2188 9.12906 -36.207 8.82438 -36.1836V-37.2734C9.01188 -37.2578 9.26188 -37.25 9.57438 -37.25C10.0197 -37.25 10.3947 -37.3867 10.6994 -37.6602C11.0041 -37.9336 11.1564 -38.3086 11.1564 -38.7852C11.1564 -39.1992 11.0236 -39.5391 10.758 -39.8047C10.4923 -40.0781 10.1525 -40.2148 9.73844 -40.2148C9.03531 -40.2148 8.51969 -39.7734 8.19156 -38.8906L7.09 -39.2305C7.26188 -39.8477 7.58219 -40.3477 8.05094 -40.7305C8.51969 -41.1211 9.10953 -41.3164 9.82047 -41.3164C10.6486 -41.3164 11.3088 -41.0898 11.8009 -40.6367C12.2931 -40.1836 12.5392 -39.6094 12.5392 -38.9141C12.5392 -38.4219 12.4103 -37.9922 12.1525 -37.625C11.9025 -37.2578 11.5939 -36.9883 11.2267 -36.8164C11.672 -36.6758 12.0588 -36.4141 12.3869 -36.0312C12.7228 -35.6562 12.8908 -35.1719 12.8908 -34.5781C12.8908 -33.7031 12.6095 -33.0195 12.047 -32.5273C11.4845 -32.0352 10.7384 -31.7891 9.80875 -31.7891C9.07438 -31.7891 8.44938 -31.9766 7.93375 -32.3516C7.41813 -32.7344 7.06656 -33.2031 6.87906 -33.7578ZM13.5355 -30.0078L14.6019 -33.6758H16.1722L14.5784 -30.0078H13.5355ZM19.0083 -38.7852C19.0083 -38.3555 19.1372 -38.0078 19.395 -37.7422C19.6606 -37.4766 19.9848 -37.3438 20.3677 -37.3438C20.7583 -37.3438 21.0786 -37.4766 21.3286 -37.7422C21.5864 -38.0156 21.7153 -38.3633 21.7153 -38.7852C21.7153 -39.1914 21.5903 -39.5312 21.3403 -39.8047C21.0903 -40.0781 20.7661 -40.2148 20.3677 -40.2148C19.9614 -40.2148 19.6333 -40.0781 19.3833 -39.8047C19.1333 -39.5312 19.0083 -39.1914 19.0083 -38.7852ZM17.3559 -34.4844C17.3559 -35.1016 17.5161 -35.6055 17.8364 -35.9961C18.1645 -36.3867 18.5473 -36.6641 18.9848 -36.8281C18.0864 -37.2578 17.6372 -37.9297 17.6372 -38.8438C17.6372 -39.5547 17.895 -40.1445 18.4106 -40.6133C18.9341 -41.082 19.5864 -41.3164 20.3677 -41.3164C21.1489 -41.3164 21.7973 -41.082 22.313 -40.6133C22.8364 -40.1445 23.0981 -39.5547 23.0981 -38.8438C23.0981 -38.3516 22.9692 -37.9375 22.7114 -37.6016C22.4536 -37.2656 22.1294 -37.0078 21.7388 -36.8281C22.1997 -36.6641 22.5903 -36.3828 22.9106 -35.9844C23.2309 -35.5859 23.3911 -35.082 23.3911 -34.4727C23.3911 -33.6758 23.1098 -33.0273 22.5473 -32.5273C21.9848 -32.0352 21.2583 -31.7891 20.3677 -31.7891C19.5239 -31.7891 18.8091 -32.0273 18.2231 -32.5039C17.645 -32.9883 17.3559 -33.6484 17.3559 -34.4844ZM18.727 -34.5547C18.727 -34.0781 18.8794 -33.6797 19.1841 -33.3594C19.4966 -33.0469 19.8911 -32.8906 20.3677 -32.8906C20.8442 -32.8906 21.2348 -33.0469 21.5395 -33.3594C21.852 -33.6797 22.0083 -34.0781 22.0083 -34.5547C22.0083 -35.0234 21.852 -35.4219 21.5395 -35.75C21.2348 -36.0859 20.8442 -36.2539 20.3677 -36.2539C19.8989 -36.2539 19.5083 -36.0898 19.1958 -35.7617C18.8833 -35.4336 18.727 -35.0312 18.727 -34.5547ZM25.2897 -36.5469C25.2897 -35.8359 25.3366 -35.2188 25.4303 -34.6953C25.5241 -34.1719 25.692 -33.7383 25.9342 -33.3945C26.1842 -33.0586 26.4967 -32.8906 26.8717 -32.8906C27.1608 -32.8906 27.4069 -32.9883 27.61 -33.1836C27.8209 -33.3867 27.9811 -33.668 28.0905 -34.0273C28.2077 -34.3867 28.2897 -34.7695 28.3366 -35.1758C28.3913 -35.5898 28.4186 -36.0469 28.4186 -36.5469C28.4186 -37.0625 28.3913 -37.5352 28.3366 -37.9648C28.2819 -38.3945 28.192 -38.7812 28.067 -39.125C27.9498 -39.4688 27.7858 -39.7344 27.5748 -39.9219C27.3717 -40.1172 27.1295 -40.2148 26.8483 -40.2148C26.4811 -40.2148 26.1764 -40.043 25.9342 -39.6992C25.692 -39.3633 25.5241 -38.9297 25.4303 -38.3984C25.3366 -37.875 25.2897 -37.2578 25.2897 -36.5469ZM23.9069 -36.5469C23.9069 -37.4297 23.9928 -38.1953 24.1647 -38.8438C24.3366 -39.4922 24.5709 -39.9883 24.8678 -40.332C25.1647 -40.6758 25.4772 -40.9258 25.8053 -41.082C26.1334 -41.2383 26.4811 -41.3164 26.8483 -41.3164C27.7858 -41.3164 28.5123 -40.8984 29.028 -40.0625C29.5436 -39.2344 29.8014 -38.0625 29.8014 -36.5469C29.8014 -35.1016 29.5514 -33.9453 29.0514 -33.0781C28.5592 -32.2188 27.8327 -31.7891 26.8717 -31.7891C26.5045 -31.7891 26.1569 -31.8672 25.8288 -32.0234C25.5006 -32.1797 25.1881 -32.4297 24.8913 -32.7734C24.5944 -33.1172 24.3561 -33.6133 24.1764 -34.2617C23.9967 -34.9102 23.9069 -35.6719 23.9069 -36.5469ZM30.3875 -33.6172L31.5008 -34.0273C31.6492 -33.6914 31.868 -33.418 32.157 -33.207C32.4461 -32.9961 32.7664 -32.8906 33.118 -32.8906C33.6336 -32.8906 34.0398 -33.0664 34.3367 -33.418C34.6414 -33.7695 34.7938 -34.2305 34.7938 -34.8008C34.7938 -35.3633 34.6336 -35.8242 34.3133 -36.1836C33.993 -36.543 33.5828 -36.7227 33.0828 -36.7227C32.4891 -36.7227 31.9656 -36.4453 31.5125 -35.8906L30.6805 -36.2188L31.1492 -41.1055H35.6609V-40.0039H32.3797L32.0867 -37.3789C32.5008 -37.668 32.9891 -37.8125 33.5516 -37.8125C34.325 -37.8125 34.9539 -37.543 35.4383 -37.0039C35.9305 -36.4648 36.1766 -35.7383 36.1766 -34.8242C36.1766 -34.4336 36.118 -34.0625 36.0008 -33.7109C35.8836 -33.3594 35.7078 -33.0352 35.4734 -32.7383C35.2391 -32.4492 34.9227 -32.2188 34.5242 -32.0469C34.1258 -31.875 33.6688 -31.7891 33.1531 -31.7891C32.4813 -31.7891 31.9109 -31.9531 31.4422 -32.2812C30.9813 -32.6172 30.6297 -33.0625 30.3875 -33.6172ZM0.269531 -17.0234L4.33594 -23.1992H5.49609V-17.0469H6.67969V-15.9453H5.49609V-13.9062H4.16016V-15.9453H0.269531V-17.0234ZM1.54688 -17.0469H4.16016V-19.9062C4.16016 -20.3516 4.17578 -20.7812 4.20703 -21.1953H4.16016C4.07422 -21.0391 3.94141 -20.8203 3.76172 -20.5391C3.58984 -20.2578 3.49219 -20.0977 3.46875 -20.0586L1.54688 -17.0469ZM6.87906 -15.7578L7.95719 -16.1562C8.35563 -15.3125 8.96891 -14.8906 9.79703 -14.8906C10.2814 -14.8906 10.6838 -15.0352 11.0041 -15.3242C11.3322 -15.6211 11.4963 -16.0391 11.4963 -16.5781C11.4963 -17.0781 11.3166 -17.4766 10.9572 -17.7734C10.6056 -18.0703 10.1603 -18.2188 9.62125 -18.2188C9.39469 -18.2188 9.12906 -18.207 8.82438 -18.1836V-19.2734C9.01188 -19.2578 9.26188 -19.25 9.57438 -19.25C10.0197 -19.25 10.3947 -19.3867 10.6994 -19.6602C11.0041 -19.9336 11.1564 -20.3086 11.1564 -20.7852C11.1564 -21.1992 11.0236 -21.5391 10.758 -21.8047C10.4923 -22.0781 10.1525 -22.2148 9.73844 -22.2148C9.03531 -22.2148 8.51969 -21.7734 8.19156 -20.8906L7.09 -21.2305C7.26188 -21.8477 7.58219 -22.3477 8.05094 -22.7305C8.51969 -23.1211 9.10953 -23.3164 9.82047 -23.3164C10.6486 -23.3164 11.3088 -23.0898 11.8009 -22.6367C12.2931 -22.1836 12.5392 -21.6094 12.5392 -20.9141C12.5392 -20.4219 12.4103 -19.9922 12.1525 -19.625C11.9025 -19.2578 11.5939 -18.9883 11.2267 -18.8164C11.672 -18.6758 12.0588 -18.4141 12.3869 -18.0312C12.7228 -17.6562 12.8908 -17.1719 12.8908 -16.5781C12.8908 -15.7031 12.6095 -15.0195 12.047 -14.5273C11.4845 -14.0352 10.7384 -13.7891 9.80875 -13.7891C9.07438 -13.7891 8.44938 -13.9766 7.93375 -14.3516C7.41813 -14.7344 7.06656 -15.2031 6.87906 -15.7578ZM13.5355 -12.0078L14.6019 -15.6758H16.1722L14.5784 -12.0078H13.5355ZM19.0083 -20.7852C19.0083 -20.3555 19.1372 -20.0078 19.395 -19.7422C19.6606 -19.4766 19.9848 -19.3438 20.3677 -19.3438C20.7583 -19.3438 21.0786 -19.4766 21.3286 -19.7422C21.5864 -20.0156 21.7153 -20.3633 21.7153 -20.7852C21.7153 -21.1914 21.5903 -21.5312 21.3403 -21.8047C21.0903 -22.0781 20.7661 -22.2148 20.3677 -22.2148C19.9614 -22.2148 19.6333 -22.0781 19.3833 -21.8047C19.1333 -21.5312 19.0083 -21.1914 19.0083 -20.7852ZM17.3559 -16.4844C17.3559 -17.1016 17.5161 -17.6055 17.8364 -17.9961C18.1645 -18.3867 18.5473 -18.6641 18.9848 -18.8281C18.0864 -19.2578 17.6372 -19.9297 17.6372 -20.8438C17.6372 -21.5547 17.895 -22.1445 18.4106 -22.6133C18.9341 -23.082 19.5864 -23.3164 20.3677 -23.3164C21.1489 -23.3164 21.7973 -23.082 22.313 -22.6133C22.8364 -22.1445 23.0981 -21.5547 23.0981 -20.8438C23.0981 -20.3516 22.9692 -19.9375 22.7114 -19.6016C22.4536 -19.2656 22.1294 -19.0078 21.7388 -18.8281C22.1997 -18.6641 22.5903 -18.3828 22.9106 -17.9844C23.2309 -17.5859 23.3911 -17.082 23.3911 -16.4727C23.3911 -15.6758 23.1098 -15.0273 22.5473 -14.5273C21.9848 -14.0352 21.2583 -13.7891 20.3677 -13.7891C19.5239 -13.7891 18.8091 -14.0273 18.2231 -14.5039C17.645 -14.9883 17.3559 -15.6484 17.3559 -16.4844ZM18.727 -16.5547C18.727 -16.0781 18.8794 -15.6797 19.1841 -15.3594C19.4966 -15.0469 19.8911 -14.8906 20.3677 -14.8906C20.8442 -14.8906 21.2348 -15.0469 21.5395 -15.3594C21.852 -15.6797 22.0083 -16.0781 22.0083 -16.5547C22.0083 -17.0234 21.852 -17.4219 21.5395 -17.75C21.2348 -18.0859 20.8442 -18.2539 20.3677 -18.2539C19.8989 -18.2539 19.5083 -18.0898 19.1958 -17.7617C18.8833 -17.4336 18.727 -17.0312 18.727 -16.5547ZM25.2897 -18.5469C25.2897 -17.8359 25.3366 -17.2188 25.4303 -16.6953C25.5241 -16.1719 25.692 -15.7383 25.9342 -15.3945C26.1842 -15.0586 26.4967 -14.8906 26.8717 -14.8906C27.1608 -14.8906 27.4069 -14.9883 27.61 -15.1836C27.8209 -15.3867 27.9811 -15.668 28.0905 -16.0273C28.2077 -16.3867 28.2897 -16.7695 28.3366 -17.1758C28.3913 -17.5898 28.4186 -18.0469 28.4186 -18.5469C28.4186 -19.0625 28.3913 -19.5352 28.3366 -19.9648C28.2819 -20.3945 28.192 -20.7812 28.067 -21.125C27.9498 -21.4688 27.7858 -21.7344 27.5748 -21.9219C27.3717 -22.1172 27.1295 -22.2148 26.8483 -22.2148C26.4811 -22.2148 26.1764 -22.043 25.9342 -21.6992C25.692 -21.3633 25.5241 -20.9297 25.4303 -20.3984C25.3366 -19.875 25.2897 -19.2578 25.2897 -18.5469ZM23.9069 -18.5469C23.9069 -19.4297 23.9928 -20.1953 24.1647 -20.8438C24.3366 -21.4922 24.5709 -21.9883 24.8678 -22.332C25.1647 -22.6758 25.4772 -22.9258 25.8053 -23.082C26.1334 -23.2383 26.4811 -23.3164 26.8483 -23.3164C27.7858 -23.3164 28.5123 -22.8984 29.028 -22.0625C29.5436 -21.2344 29.8014 -20.0625 29.8014 -18.5469C29.8014 -17.1016 29.5514 -15.9453 29.0514 -15.0781C28.5592 -14.2188 27.8327 -13.7891 26.8717 -13.7891C26.5045 -13.7891 26.1569 -13.8672 25.8288 -14.0234C25.5006 -14.1797 25.1881 -14.4297 24.8913 -14.7734C24.5944 -15.1172 24.3561 -15.6133 24.1764 -16.2617C23.9967 -16.9102 23.9069 -17.6719 23.9069 -18.5469ZM30.1648 -17.0234L34.2313 -23.1992H35.3914V-17.0469H36.575V-15.9453H35.3914V-13.9062H34.0555V-15.9453H30.1648V-17.0234ZM31.4422 -17.0469H34.0555V-19.9062C34.0555 -20.3516 34.0711 -20.7812 34.1023 -21.1953H34.0555C33.9695 -21.0391 33.8367 -20.8203 33.657 -20.5391C33.4852 -20.2578 33.3875 -20.0977 33.3641 -20.0586L31.4422 -17.0469ZM0.269531 0.976562L4.33594 -5.19922H5.49609V0.953125H6.67969V2.05469H5.49609V4.09375H4.16016V2.05469H0.269531V0.976562ZM1.54688 0.953125H4.16016V-1.90625C4.16016 -2.35156 4.17578 -2.78125 4.20703 -3.19531H4.16016C4.07422 -3.03906 3.94141 -2.82031 3.76172 -2.53906C3.58984 -2.25781 3.49219 -2.09766 3.46875 -2.05859L1.54688 0.953125ZM6.87906 2.24219L7.95719 1.84375C8.35563 2.6875 8.96891 3.10938 9.79703 3.10938C10.2814 3.10938 10.6838 2.96484 11.0041 2.67578C11.3322 2.37891 11.4963 1.96094 11.4963 1.42188C11.4963 0.921875 11.3166 0.523438 10.9572 0.226562C10.6056 -0.0703125 10.1603 -0.21875 9.62125 -0.21875C9.39469 -0.21875 9.12906 -0.207031 8.82438 -0.183594V-1.27344C9.01188 -1.25781 9.26188 -1.25 9.57438 -1.25C10.0197 -1.25 10.3947 -1.38672 10.6994 -1.66016C11.0041 -1.93359 11.1564 -2.30859 11.1564 -2.78516C11.1564 -3.19922 11.0236 -3.53906 10.758 -3.80469C10.4923 -4.07812 10.1525 -4.21484 9.73844 -4.21484C9.03531 -4.21484 8.51969 -3.77344 8.19156 -2.89062L7.09 -3.23047C7.26188 -3.84766 7.58219 -4.34766 8.05094 -4.73047C8.51969 -5.12109 9.10953 -5.31641 9.82047 -5.31641C10.6486 -5.31641 11.3088 -5.08984 11.8009 -4.63672C12.2931 -4.18359 12.5392 -3.60938 12.5392 -2.91406C12.5392 -2.42188 12.4103 -1.99219 12.1525 -1.625C11.9025 -1.25781 11.5939 -0.988281 11.2267 -0.816406C11.672 -0.675781 12.0588 -0.414062 12.3869 -0.03125C12.7228 0.34375 12.8908 0.828125 12.8908 1.42188C12.8908 2.29688 12.6095 2.98047 12.047 3.47266C11.4845 3.96484 10.7384 4.21094 9.80875 4.21094C9.07438 4.21094 8.44938 4.02344 7.93375 3.64844C7.41813 3.26562 7.06656 2.79688 6.87906 2.24219ZM13.5355 5.99219L14.6019 2.32422H16.1722L14.5784 5.99219H13.5355ZM17.4263 -3.96875V-5.10547H23.1684V-4.19141C21.6763 -1.79297 20.5786 0.96875 19.8755 4.09375H18.4927C19.0317 1.40625 20.0708 -1.28125 21.6098 -3.96875H17.4263ZM25.2077 -2.24609C25.2077 -1.65234 25.3561 -1.17578 25.653 -0.816406C25.9498 -0.457031 26.317 -0.277344 26.7545 -0.277344C27.1998 -0.277344 27.567 -0.460938 27.8561 -0.828125C28.1452 -1.19531 28.2897 -1.66797 28.2897 -2.24609C28.2897 -2.80078 28.1491 -3.26562 27.8678 -3.64062C27.5866 -4.02344 27.2155 -4.21484 26.7545 -4.21484C26.3092 -4.21484 25.9381 -4.02734 25.6413 -3.65234C25.3522 -3.28516 25.2077 -2.81641 25.2077 -2.24609ZM23.8717 2.39453L24.9733 2.03125C25.3405 2.75 25.8444 3.10938 26.485 3.10938C26.8288 3.10938 27.1256 3.01953 27.3756 2.83984C27.6256 2.65234 27.817 2.39453 27.9498 2.06641C28.0905 1.73828 28.192 1.39062 28.2545 1.02344C28.3248 0.65625 28.3639 0.257812 28.3717 -0.171875C28.2077 0.101562 27.9733 0.335938 27.6686 0.53125C27.3639 0.726562 26.9967 0.824219 26.567 0.824219C25.817 0.824219 25.1764 0.546875 24.6452 -0.0078125C24.1217 -0.5625 23.86 -1.30469 23.86 -2.23438C23.86 -3.14062 24.1295 -3.87891 24.6686 -4.44922C25.2155 -5.02734 25.9069 -5.31641 26.7428 -5.31641C27.4538 -5.31641 28.0514 -5.08984 28.5358 -4.63672C29.028 -4.18359 29.3561 -3.58984 29.5202 -2.85547C29.6295 -2.37109 29.6842 -1.75 29.6842 -0.992188C29.6842 0.65625 29.4225 1.9375 28.8991 2.85156C28.3756 3.75781 27.5631 4.21094 26.4616 4.21094C25.8444 4.21094 25.3053 4.02734 24.8444 3.66016C24.3834 3.29297 24.0592 2.87109 23.8717 2.39453ZM31.993 -2.78516C31.993 -2.35547 32.1219 -2.00781 32.3797 -1.74219C32.6453 -1.47656 32.9695 -1.34375 33.3523 -1.34375C33.743 -1.34375 34.0633 -1.47656 34.3133 -1.74219C34.5711 -2.01562 34.7 -2.36328 34.7 -2.78516C34.7 -3.19141 34.575 -3.53125 34.325 -3.80469C34.075 -4.07812 33.7508 -4.21484 33.3523 -4.21484C32.9461 -4.21484 32.618 -4.07812 32.368 -3.80469C32.118 -3.53125 31.993 -3.19141 31.993 -2.78516ZM30.3406 1.51562C30.3406 0.898438 30.5008 0.394531 30.8211 0.00390625C31.1492 -0.386719 31.532 -0.664062 31.9695 -0.828125C31.0711 -1.25781 30.6219 -1.92969 30.6219 -2.84375C30.6219 -3.55469 30.8797 -4.14453 31.3953 -4.61328C31.9188 -5.08203 32.5711 -5.31641 33.3523 -5.31641C34.1336 -5.31641 34.782 -5.08203 35.2977 -4.61328C35.8211 -4.14453 36.0828 -3.55469 36.0828 -2.84375C36.0828 -2.35156 35.9539 -1.9375 35.6961 -1.60156C35.4383 -1.26562 35.1141 -1.00781 34.7234 -0.828125C35.1844 -0.664062 35.575 -0.382812 35.8953 0.015625C36.2156 0.414062 36.3758 0.917969 36.3758 1.52734C36.3758 2.32422 36.0945 2.97266 35.532 3.47266C34.9695 3.96484 34.243 4.21094 33.3523 4.21094C32.5086 4.21094 31.7938 3.97266 31.2078 3.49609C30.6297 3.01172 30.3406 2.35156 30.3406 1.51562ZM31.7117 1.44531C31.7117 1.92188 31.8641 2.32031 32.1688 2.64062C32.4813 2.95312 32.8758 3.10938 33.3523 3.10938C33.8289 3.10938 34.2195 2.95312 34.5242 2.64062C34.8367 2.32031 34.993 1.92188 34.993 1.44531C34.993 0.976562 34.8367 0.578125 34.5242 0.25C34.2195 -0.0859375 33.8289 -0.253906 33.3523 -0.253906C32.8836 -0.253906 32.493 -0.0898438 32.1805 0.238281C31.868 0.566406 31.7117 0.96875 31.7117 1.44531ZM0.269531 18.9766L4.33594 12.8008H5.49609V18.9531H6.67969V20.0547H5.49609V22.0938H4.16016V20.0547H0.269531V18.9766ZM1.54688 18.9531H4.16016V16.0938C4.16016 15.6484 4.17578 15.2188 4.20703 14.8047H4.16016C4.07422 14.9609 3.94141 15.1797 3.76172 15.4609C3.58984 15.7422 3.49219 15.9023 3.46875 15.9414L1.54688 18.9531ZM6.87906 20.2422L7.95719 19.8438C8.35563 20.6875 8.96891 21.1094 9.79703 21.1094C10.2814 21.1094 10.6838 20.9648 11.0041 20.6758C11.3322 20.3789 11.4963 19.9609 11.4963 19.4219C11.4963 18.9219 11.3166 18.5234 10.9572 18.2266C10.6056 17.9297 10.1603 17.7812 9.62125 17.7812C9.39469 17.7812 9.12906 17.793 8.82438 17.8164V16.7266C9.01188 16.7422 9.26188 16.75 9.57438 16.75C10.0197 16.75 10.3947 16.6133 10.6994 16.3398C11.0041 16.0664 11.1564 15.6914 11.1564 15.2148C11.1564 14.8008 11.0236 14.4609 10.758 14.1953C10.4923 13.9219 10.1525 13.7852 9.73844 13.7852C9.03531 13.7852 8.51969 14.2266 8.19156 15.1094L7.09 14.7695C7.26188 14.1523 7.58219 13.6523 8.05094 13.2695C8.51969 12.8789 9.10953 12.6836 9.82047 12.6836C10.6486 12.6836 11.3088 12.9102 11.8009 13.3633C12.2931 13.8164 12.5392 14.3906 12.5392 15.0859C12.5392 15.5781 12.4103 16.0078 12.1525 16.375C11.9025 16.7422 11.5939 17.0117 11.2267 17.1836C11.672 17.3242 12.0588 17.5859 12.3869 17.9688C12.7228 18.3438 12.8908 18.8281 12.8908 19.4219C12.8908 20.2969 12.6095 20.9805 12.047 21.4727C11.4845 21.9648 10.7384 22.2109 9.80875 22.2109C9.07438 22.2109 8.44938 22.0234 7.93375 21.6484C7.41813 21.2656 7.06656 20.7969 6.87906 20.2422ZM13.5355 23.9922L14.6019 20.3242H16.1722L14.5784 23.9922H13.5355ZM17.4263 14.0312V12.8945H23.1684V13.8086C21.6763 16.207 20.5786 18.9688 19.8755 22.0938H18.4927C19.0317 19.4062 20.0708 16.7188 21.6098 14.0312H17.4263ZM25.2077 15.7539C25.2077 16.3477 25.3561 16.8242 25.653 17.1836C25.9498 17.543 26.317 17.7227 26.7545 17.7227C27.1998 17.7227 27.567 17.5391 27.8561 17.1719C28.1452 16.8047 28.2897 16.332 28.2897 15.7539C28.2897 15.1992 28.1491 14.7344 27.8678 14.3594C27.5866 13.9766 27.2155 13.7852 26.7545 13.7852C26.3092 13.7852 25.9381 13.9727 25.6413 14.3477C25.3522 14.7148 25.2077 15.1836 25.2077 15.7539ZM23.8717 20.3945L24.9733 20.0312C25.3405 20.75 25.8444 21.1094 26.485 21.1094C26.8288 21.1094 27.1256 21.0195 27.3756 20.8398C27.6256 20.6523 27.817 20.3945 27.9498 20.0664C28.0905 19.7383 28.192 19.3906 28.2545 19.0234C28.3248 18.6562 28.3639 18.2578 28.3717 17.8281C28.2077 18.1016 27.9733 18.3359 27.6686 18.5312C27.3639 18.7266 26.9967 18.8242 26.567 18.8242C25.817 18.8242 25.1764 18.5469 24.6452 17.9922C24.1217 17.4375 23.86 16.6953 23.86 15.7656C23.86 14.8594 24.1295 14.1211 24.6686 13.5508C25.2155 12.9727 25.9069 12.6836 26.7428 12.6836C27.4538 12.6836 28.0514 12.9102 28.5358 13.3633C29.028 13.8164 29.3561 14.4102 29.5202 15.1445C29.6295 15.6289 29.6842 16.25 29.6842 17.0078C29.6842 18.6562 29.4225 19.9375 28.8991 20.8516C28.3756 21.7578 27.5631 22.2109 26.4616 22.2109C25.8444 22.2109 25.3053 22.0273 24.8444 21.6602C24.3834 21.293 24.0592 20.8711 23.8717 20.3945ZM31.8523 19.1172C31.8523 19.7188 31.9969 20.2031 32.2859 20.5703C32.575 20.9297 32.9539 21.1094 33.4227 21.1094C33.8758 21.1094 34.2469 20.9297 34.5359 20.5703C34.8328 20.2109 34.9813 19.7266 34.9813 19.1172C34.9813 18.5 34.8328 18.0156 34.5359 17.6641C34.2469 17.3047 33.8719 17.125 33.4109 17.125C32.9578 17.125 32.5828 17.3125 32.2859 17.6875C31.9969 18.0547 31.8523 18.5312 31.8523 19.1172ZM30.4461 17.8867C30.4461 17.1992 30.5047 16.5547 30.6219 15.9531C30.7469 15.3516 30.9344 14.8008 31.1844 14.3008C31.4344 13.8008 31.7742 13.4062 32.2039 13.1172C32.6414 12.8281 33.1453 12.6836 33.7156 12.6836C34.8875 12.6836 35.7391 13.2852 36.2703 14.4883L35.2156 14.8516C34.8328 14.1406 34.3367 13.7852 33.7273 13.7852C32.8133 13.7852 32.2195 14.5352 31.9461 16.0352C31.868 16.4023 31.8172 16.7539 31.7938 17.0898C31.9422 16.7773 32.1727 16.5234 32.4852 16.3281C32.8055 16.125 33.1766 16.0234 33.5984 16.0234C34.4031 16.0234 35.0594 16.3164 35.5672 16.9023C36.0828 17.4805 36.3406 18.2148 36.3406 19.1055C36.3406 19.9961 36.0828 20.7383 35.5672 21.332C35.0594 21.918 34.3602 22.2109 33.4695 22.2109C32.5555 22.2109 31.8367 21.8867 31.3133 21.2383C30.7352 20.5352 30.4461 19.418 30.4461 17.8867ZM0.269531 36.9766L4.33594 30.8008H5.49609V36.9531H6.67969V38.0547H5.49609V40.0938H4.16016V38.0547H0.269531V36.9766ZM1.54688 36.9531H4.16016V34.0938C4.16016 33.6484 4.17578 33.2188 4.20703 32.8047H4.16016C4.07422 32.9609 3.94141 33.1797 3.76172 33.4609C3.58984 33.7422 3.49219 33.9023 3.46875 33.9414L1.54688 36.9531ZM6.87906 38.2422L7.95719 37.8438C8.35563 38.6875 8.96891 39.1094 9.79703 39.1094C10.2814 39.1094 10.6838 38.9648 11.0041 38.6758C11.3322 38.3789 11.4963 37.9609 11.4963 37.4219C11.4963 36.9219 11.3166 36.5234 10.9572 36.2266C10.6056 35.9297 10.1603 35.7812 9.62125 35.7812C9.39469 35.7812 9.12906 35.793 8.82438 35.8164V34.7266C9.01188 34.7422 9.26188 34.75 9.57438 34.75C10.0197 34.75 10.3947 34.6133 10.6994 34.3398C11.0041 34.0664 11.1564 33.6914 11.1564 33.2148C11.1564 32.8008 11.0236 32.4609 10.758 32.1953C10.4923 31.9219 10.1525 31.7852 9.73844 31.7852C9.03531 31.7852 8.51969 32.2266 8.19156 33.1094L7.09 32.7695C7.26188 32.1523 7.58219 31.6523 8.05094 31.2695C8.51969 30.8789 9.10953 30.6836 9.82047 30.6836C10.6486 30.6836 11.3088 30.9102 11.8009 31.3633C12.2931 31.8164 12.5392 32.3906 12.5392 33.0859C12.5392 33.5781 12.4103 34.0078 12.1525 34.375C11.9025 34.7422 11.5939 35.0117 11.2267 35.1836C11.672 35.3242 12.0588 35.5859 12.3869 35.9688C12.7228 36.3438 12.8908 36.8281 12.8908 37.4219C12.8908 38.2969 12.6095 38.9805 12.047 39.4727C11.4845 39.9648 10.7384 40.2109 9.80875 40.2109C9.07438 40.2109 8.44938 40.0234 7.93375 39.6484C7.41813 39.2656 7.06656 38.7969 6.87906 38.2422ZM13.5355 41.9922L14.6019 38.3242H16.1722L14.5784 41.9922H13.5355ZM17.4263 32.0312V30.8945H23.1684V31.8086C21.6763 34.207 20.5786 36.9688 19.8755 40.0938H18.4927C19.0317 37.4062 20.0708 34.7188 21.6098 32.0312H17.4263ZM25.2077 33.7539C25.2077 34.3477 25.3561 34.8242 25.653 35.1836C25.9498 35.543 26.317 35.7227 26.7545 35.7227C27.1998 35.7227 27.567 35.5391 27.8561 35.1719C28.1452 34.8047 28.2897 34.332 28.2897 33.7539C28.2897 33.1992 28.1491 32.7344 27.8678 32.3594C27.5866 31.9766 27.2155 31.7852 26.7545 31.7852C26.3092 31.7852 25.9381 31.9727 25.6413 32.3477C25.3522 32.7148 25.2077 33.1836 25.2077 33.7539ZM23.8717 38.3945L24.9733 38.0312C25.3405 38.75 25.8444 39.1094 26.485 39.1094C26.8288 39.1094 27.1256 39.0195 27.3756 38.8398C27.6256 38.6523 27.817 38.3945 27.9498 38.0664C28.0905 37.7383 28.192 37.3906 28.2545 37.0234C28.3248 36.6562 28.3639 36.2578 28.3717 35.8281C28.2077 36.1016 27.9733 36.3359 27.6686 36.5312C27.3639 36.7266 26.9967 36.8242 26.567 36.8242C25.817 36.8242 25.1764 36.5469 24.6452 35.9922C24.1217 35.4375 23.86 34.6953 23.86 33.7656C23.86 32.8594 24.1295 32.1211 24.6686 31.5508C25.2155 30.9727 25.9069 30.6836 26.7428 30.6836C27.4538 30.6836 28.0514 30.9102 28.5358 31.3633C29.028 31.8164 29.3561 32.4102 29.5202 33.1445C29.6295 33.6289 29.6842 34.25 29.6842 35.0078C29.6842 36.6562 29.4225 37.9375 28.8991 38.8516C28.3756 39.7578 27.5631 40.2109 26.4616 40.2109C25.8444 40.2109 25.3053 40.0273 24.8444 39.6602C24.3834 39.293 24.0592 38.8711 23.8717 38.3945ZM30.1648 36.9766L34.2313 30.8008H35.3914V36.9531H36.575V38.0547H35.3914V40.0938H34.0555V38.0547H30.1648V36.9766ZM31.4422 36.9531H34.0555V34.0938C34.0555 33.6484 34.0711 33.2188 34.1023 32.8047H34.0555C33.9695 32.9609 33.8367 33.1797 33.657 33.4609C33.4852 33.7422 33.3875 33.9023 33.3641 33.9414L31.4422 36.9531ZM0.269531 54.9766L4.33594 48.8008H5.49609V54.9531H6.67969V56.0547H5.49609V58.0938H4.16016V56.0547H0.269531V54.9766ZM1.54688 54.9531H4.16016V52.0938C4.16016 51.6484 4.17578 51.2188 4.20703 50.8047H4.16016C4.07422 50.9609 3.94141 51.1797 3.76172 51.4609C3.58984 51.7422 3.49219 51.9023 3.46875 51.9414L1.54688 54.9531ZM6.87906 56.2422L7.95719 55.8438C8.35563 56.6875 8.96891 57.1094 9.79703 57.1094C10.2814 57.1094 10.6838 56.9648 11.0041 56.6758C11.3322 56.3789 11.4963 55.9609 11.4963 55.4219C11.4963 54.9219 11.3166 54.5234 10.9572 54.2266C10.6056 53.9297 10.1603 53.7812 9.62125 53.7812C9.39469 53.7812 9.12906 53.793 8.82438 53.8164V52.7266C9.01188 52.7422 9.26188 52.75 9.57438 52.75C10.0197 52.75 10.3947 52.6133 10.6994 52.3398C11.0041 52.0664 11.1564 51.6914 11.1564 51.2148C11.1564 50.8008 11.0236 50.4609 10.758 50.1953C10.4923 49.9219 10.1525 49.7852 9.73844 49.7852C9.03531 49.7852 8.51969 50.2266 8.19156 51.1094L7.09 50.7695C7.26188 50.1523 7.58219 49.6523 8.05094 49.2695C8.51969 48.8789 9.10953 48.6836 9.82047 48.6836C10.6486 48.6836 11.3088 48.9102 11.8009 49.3633C12.2931 49.8164 12.5392 50.3906 12.5392 51.0859C12.5392 51.5781 12.4103 52.0078 12.1525 52.375C11.9025 52.7422 11.5939 53.0117 11.2267 53.1836C11.672 53.3242 12.0588 53.5859 12.3869 53.9688C12.7228 54.3438 12.8908 54.8281 12.8908 55.4219C12.8908 56.2969 12.6095 56.9805 12.047 57.4727C11.4845 57.9648 10.7384 58.2109 9.80875 58.2109C9.07438 58.2109 8.44938 58.0234 7.93375 57.6484C7.41813 57.2656 7.06656 56.7969 6.87906 56.2422ZM13.5355 59.9922L14.6019 56.3242H16.1722L14.5784 59.9922H13.5355ZM17.4263 50.0312V48.8945H23.1684V49.8086C21.6763 52.207 20.5786 54.9688 19.8755 58.0938H18.4927C19.0317 55.4062 20.0708 52.7188 21.6098 50.0312H17.4263ZM25.2077 51.7539C25.2077 52.3477 25.3561 52.8242 25.653 53.1836C25.9498 53.543 26.317 53.7227 26.7545 53.7227C27.1998 53.7227 27.567 53.5391 27.8561 53.1719C28.1452 52.8047 28.2897 52.332 28.2897 51.7539C28.2897 51.1992 28.1491 50.7344 27.8678 50.3594C27.5866 49.9766 27.2155 49.7852 26.7545 49.7852C26.3092 49.7852 25.9381 49.9727 25.6413 50.3477C25.3522 50.7148 25.2077 51.1836 25.2077 51.7539ZM23.8717 56.3945L24.9733 56.0312C25.3405 56.75 25.8444 57.1094 26.485 57.1094C26.8288 57.1094 27.1256 57.0195 27.3756 56.8398C27.6256 56.6523 27.817 56.3945 27.9498 56.0664C28.0905 55.7383 28.192 55.3906 28.2545 55.0234C28.3248 54.6562 28.3639 54.2578 28.3717 53.8281C28.2077 54.1016 27.9733 54.3359 27.6686 54.5312C27.3639 54.7266 26.9967 54.8242 26.567 54.8242C25.817 54.8242 25.1764 54.5469 24.6452 53.9922C24.1217 53.4375 23.86 52.6953 23.86 51.7656C23.86 50.8594 24.1295 50.1211 24.6686 49.5508C25.2155 48.9727 25.9069 48.6836 26.7428 48.6836C27.4538 48.6836 28.0514 48.9102 28.5358 49.3633C29.028 49.8164 29.3561 50.4102 29.5202 51.1445C29.6295 51.6289 29.6842 52.25 29.6842 53.0078C29.6842 54.6562 29.4225 55.9375 28.8991 56.8516C28.3756 57.7578 27.5631 58.2109 26.4616 58.2109C25.8444 58.2109 25.3053 58.0273 24.8444 57.6602C24.3834 57.293 24.0592 56.8711 23.8717 56.3945ZM30.4578 51.0742C30.6297 50.332 30.9539 49.75 31.4305 49.3281C31.9148 48.8984 32.5398 48.6836 33.3055 48.6836C34.1102 48.6836 34.7703 48.9141 35.2859 49.375C35.8016 49.8359 36.0594 50.4688 36.0594 51.2734C36.0594 52.1797 35.5906 53.082 34.6531 53.9805C34.5672 54.0586 34.3875 54.2305 34.1141 54.4961C33.8406 54.7617 33.6609 54.9375 33.575 55.0234C33.4969 55.1016 33.3563 55.2461 33.1531 55.457C32.9578 55.6602 32.8172 55.8242 32.7313 55.9492C32.6453 56.0664 32.5438 56.2109 32.4266 56.3828C32.3172 56.5547 32.2234 56.7266 32.1453 56.8984H36.0359V58H30.5281C30.5281 57.6562 30.5867 57.3125 30.7039 56.9688C30.8289 56.625 30.9695 56.3203 31.1258 56.0547C31.282 55.7891 31.5086 55.4883 31.8055 55.1523C32.1023 54.8086 32.3523 54.5352 32.5555 54.332C32.7664 54.1211 33.0555 53.8438 33.4227 53.5C33.5086 53.4219 33.5711 53.3633 33.6102 53.3242C34.3211 52.6523 34.6766 51.9609 34.6766 51.25C34.6766 50.7891 34.5516 50.4297 34.3016 50.1719C34.0516 49.9141 33.7156 49.7852 33.2938 49.7852C32.8563 49.7852 32.493 49.9297 32.2039 50.2188C31.9227 50.5078 31.7195 50.9062 31.5945 51.4141L30.4578 51.0742Z" fill="#F72F72"/>
<path d="M85.4291 -37.9844C85.6087 -38.7578 85.9447 -39.3672 86.4369 -39.8125C86.9291 -40.2578 87.5736 -40.4805 88.3705 -40.4805C89.2064 -40.4805 89.89 -40.2383 90.4212 -39.7539C90.9525 -39.2773 91.2181 -38.6289 91.2181 -37.8086C91.2181 -37.2773 91.097 -36.793 90.8548 -36.3555C90.6127 -35.9258 90.2611 -35.4922 89.8002 -35.0547C89.7142 -34.9688 89.4916 -34.75 89.1322 -34.3984C88.7728 -34.0469 88.5267 -33.8008 88.3939 -33.6602C88.2689 -33.5273 88.1009 -33.3242 87.89 -33.0508C87.6869 -32.7852 87.5228 -32.5234 87.3978 -32.2656H91.1947V-31H85.5228C85.5228 -31.3672 85.5814 -31.7344 85.6986 -32.1016C85.8236 -32.4766 85.9642 -32.8008 86.1205 -33.0742C86.2845 -33.3477 86.515 -33.6562 86.8119 -34C87.1166 -34.3516 87.3666 -34.625 87.5619 -34.8203C87.765 -35.0156 88.0462 -35.2852 88.4056 -35.6289C88.4916 -35.707 88.5541 -35.7656 88.5931 -35.8047C89.2806 -36.4609 89.6244 -37.1406 89.6244 -37.8438C89.6244 -38.2734 89.5072 -38.6094 89.2728 -38.8516C89.0384 -39.0938 88.7298 -39.2148 88.347 -39.2148C87.5267 -39.2148 86.9916 -38.6758 86.7416 -37.5977L85.4291 -37.9844ZM93.5855 -35.6289C93.5855 -33.2461 94.0737 -32.0547 95.0503 -32.0547C95.3237 -32.0547 95.5542 -32.1523 95.7417 -32.3477C95.937 -32.5508 96.0855 -32.8242 96.187 -33.168C96.2964 -33.5195 96.3745 -33.8945 96.4214 -34.293C96.4683 -34.6992 96.4917 -35.1445 96.4917 -35.6289C96.4917 -36.1211 96.4683 -36.5703 96.4214 -36.9766C96.3745 -37.3906 96.2964 -37.7695 96.187 -38.1133C96.0777 -38.457 95.9253 -38.7266 95.73 -38.9219C95.5347 -39.1172 95.3042 -39.2148 95.0386 -39.2148C94.0698 -39.2148 93.5855 -38.0195 93.5855 -35.6289ZM91.9917 -35.6289C91.9917 -36.543 92.0816 -37.332 92.2612 -37.9961C92.4487 -38.6602 92.6987 -39.1641 93.0112 -39.5078C93.3237 -39.8516 93.6441 -40.0977 93.9722 -40.2461C94.3081 -40.4023 94.6636 -40.4805 95.0386 -40.4805C96.0152 -40.4805 96.7652 -40.0547 97.2886 -39.2031C97.8198 -38.3516 98.0855 -37.1602 98.0855 -35.6289C98.0855 -34.1445 97.8237 -32.9648 97.3003 -32.0898C96.7847 -31.2148 96.0347 -30.7773 95.0503 -30.7773C94.6909 -30.7773 94.3433 -30.8516 94.0073 -31C93.6792 -31.1484 93.355 -31.3906 93.0347 -31.7266C92.7222 -32.0703 92.4683 -32.5742 92.273 -33.2383C92.0855 -33.9102 91.9917 -34.707 91.9917 -35.6289ZM98.6716 -29.0195L99.7966 -32.8164H101.507L99.8786 -29.0195H98.6716ZM102.644 -32.7227L103.922 -33.1797C104.062 -32.8516 104.269 -32.582 104.543 -32.3711C104.816 -32.1602 105.117 -32.0547 105.445 -32.0547C105.937 -32.0547 106.324 -32.2188 106.605 -32.5469C106.894 -32.8828 107.039 -33.3281 107.039 -33.8828C107.039 -34.4219 106.887 -34.8633 106.582 -35.207C106.277 -35.5508 105.89 -35.7227 105.422 -35.7227C104.844 -35.7227 104.34 -35.4414 103.91 -34.8789L102.937 -35.2539L103.43 -40.2695H108.117V-38.9922H104.847L104.566 -36.5664C104.949 -36.8398 105.414 -36.9766 105.961 -36.9766C106.75 -36.9766 107.39 -36.6992 107.883 -36.1445C108.375 -35.5977 108.621 -34.8555 108.621 -33.918C108.621 -33.5195 108.558 -33.1406 108.433 -32.7812C108.316 -32.4219 108.137 -32.0898 107.894 -31.7852C107.66 -31.4805 107.336 -31.2383 106.922 -31.0586C106.508 -30.8789 106.035 -30.7891 105.504 -30.7891C104.793 -30.7891 104.199 -30.9648 103.722 -31.3164C103.246 -31.6758 102.887 -32.1445 102.644 -32.7227ZM109.84 -31V-40.2695H111.387V-36.0742H111.41L115.008 -40.2695H116.965L113.379 -36.2148L117.059 -31H115.195L112.406 -35.125L111.387 -33.9648V-31H109.84ZM85.4291 -19.9844C85.6087 -20.7578 85.9447 -21.3672 86.4369 -21.8125C86.9291 -22.2578 87.5736 -22.4805 88.3705 -22.4805C89.2064 -22.4805 89.89 -22.2383 90.4212 -21.7539C90.9525 -21.2773 91.2181 -20.6289 91.2181 -19.8086C91.2181 -19.2773 91.097 -18.793 90.8548 -18.3555C90.6127 -17.9258 90.2611 -17.4922 89.8002 -17.0547C89.7142 -16.9688 89.4916 -16.75 89.1322 -16.3984C88.7728 -16.0469 88.5267 -15.8008 88.3939 -15.6602C88.2689 -15.5273 88.1009 -15.3242 87.89 -15.0508C87.6869 -14.7852 87.5228 -14.5234 87.3978 -14.2656H91.1947V-13H85.5228C85.5228 -13.3672 85.5814 -13.7344 85.6986 -14.1016C85.8236 -14.4766 85.9642 -14.8008 86.1205 -15.0742C86.2845 -15.3477 86.515 -15.6562 86.8119 -16C87.1166 -16.3516 87.3666 -16.625 87.5619 -16.8203C87.765 -17.0156 88.0462 -17.2852 88.4056 -17.6289C88.4916 -17.707 88.5541 -17.7656 88.5931 -17.8047C89.2806 -18.4609 89.6244 -19.1406 89.6244 -19.8438C89.6244 -20.2734 89.5072 -20.6094 89.2728 -20.8516C89.0384 -21.0938 88.7298 -21.2148 88.347 -21.2148C87.5267 -21.2148 86.9916 -20.6758 86.7416 -19.5977L85.4291 -19.9844ZM93.5855 -17.6289C93.5855 -15.2461 94.0737 -14.0547 95.0503 -14.0547C95.3237 -14.0547 95.5542 -14.1523 95.7417 -14.3477C95.937 -14.5508 96.0855 -14.8242 96.187 -15.168C96.2964 -15.5195 96.3745 -15.8945 96.4214 -16.293C96.4683 -16.6992 96.4917 -17.1445 96.4917 -17.6289C96.4917 -18.1211 96.4683 -18.5703 96.4214 -18.9766C96.3745 -19.3906 96.2964 -19.7695 96.187 -20.1133C96.0777 -20.457 95.9253 -20.7266 95.73 -20.9219C95.5347 -21.1172 95.3042 -21.2148 95.0386 -21.2148C94.0698 -21.2148 93.5855 -20.0195 93.5855 -17.6289ZM91.9917 -17.6289C91.9917 -18.543 92.0816 -19.332 92.2612 -19.9961C92.4487 -20.6602 92.6987 -21.1641 93.0112 -21.5078C93.3237 -21.8516 93.6441 -22.0977 93.9722 -22.2461C94.3081 -22.4023 94.6636 -22.4805 95.0386 -22.4805C96.0152 -22.4805 96.7652 -22.0547 97.2886 -21.2031C97.8198 -20.3516 98.0855 -19.1602 98.0855 -17.6289C98.0855 -16.1445 97.8237 -14.9648 97.3003 -14.0898C96.7847 -13.2148 96.0347 -12.7773 95.0503 -12.7773C94.6909 -12.7773 94.3433 -12.8516 94.0073 -13C93.6792 -13.1484 93.355 -13.3906 93.0347 -13.7266C92.7222 -14.0703 92.4683 -14.5742 92.273 -15.2383C92.0855 -15.9102 91.9917 -16.707 91.9917 -17.6289ZM98.6716 -11.0195L99.7966 -14.8164H101.507L99.8786 -11.0195H98.6716ZM103.183 -19.5391V-20.7109H103.605C104.879 -20.7109 105.515 -21.1797 105.515 -22.1172V-22.3516H106.851V-12.8945H105.269V-19.5391H103.183ZM109.84 -13V-22.2695H111.387V-18.0742H111.41L115.008 -22.2695H116.965L113.379 -18.2148L117.059 -13H115.195L112.406 -17.125L111.387 -15.9648V-13H109.84ZM85.9095 -1.53906V-2.71094H86.3314C87.6048 -2.71094 88.2416 -3.17969 88.2416 -4.11719V-4.35156H89.5775V5.10547H87.9955V-1.53906H85.9095ZM93.5152 -1.33984C93.5152 -0.777344 93.648 -0.324219 93.9136 0.0195312C94.187 0.363281 94.5308 0.535156 94.9448 0.535156C95.3667 0.535156 95.7066 0.363281 95.9644 0.0195312C96.23 -0.332031 96.3628 -0.785156 96.3628 -1.33984C96.3628 -1.87891 96.2339 -2.32422 95.9761 -2.67578C95.7261 -3.03516 95.3823 -3.21484 94.9448 -3.21484C94.523 -3.21484 94.1792 -3.03906 93.9136 -2.6875C93.648 -2.33594 93.5152 -1.88672 93.5152 -1.33984ZM91.9566 3.28906L93.1987 2.87891C93.5581 3.58984 94.0425 3.94531 94.6519 3.94531C94.9722 3.94531 95.2495 3.85547 95.4839 3.67578C95.7261 3.49609 95.9136 3.25391 96.0464 2.94922C96.1792 2.64453 96.2769 2.32812 96.3394 2C96.4019 1.66406 96.437 1.30469 96.4448 0.921875C96.062 1.5 95.4878 1.78906 94.7222 1.78906C93.9487 1.78906 93.2925 1.50781 92.7534 0.945312C92.2222 0.375 91.9566 -0.382812 91.9566 -1.32812C91.9566 -2.25781 92.2339 -3.01562 92.7886 -3.60156C93.3511 -4.1875 94.0659 -4.48047 94.9331 -4.48047C95.6675 -4.48047 96.2808 -4.24609 96.773 -3.77734C97.2652 -3.30859 97.6011 -2.69141 97.7808 -1.92578C97.898 -1.41797 97.9566 -0.796875 97.9566 -0.0625C97.9566 1.61719 97.6831 2.91797 97.1362 3.83984C96.5894 4.75391 95.7573 5.21094 94.6402 5.21094C93.9917 5.21094 93.4292 5.01562 92.9527 4.625C92.4761 4.23438 92.1441 3.78906 91.9566 3.28906ZM98.6716 6.98047L99.7966 3.18359H101.507L99.8786 6.98047H98.6716ZM102.644 3.27734L103.922 2.82031C104.062 3.14844 104.269 3.41797 104.543 3.62891C104.816 3.83984 105.117 3.94531 105.445 3.94531C105.937 3.94531 106.324 3.78125 106.605 3.45312C106.894 3.11719 107.039 2.67188 107.039 2.11719C107.039 1.57812 106.887 1.13672 106.582 0.792969C106.277 0.449219 105.89 0.277344 105.422 0.277344C104.844 0.277344 104.34 0.558594 103.91 1.12109L102.937 0.746094L103.43 -4.26953H108.117V-2.99219H104.847L104.566 -0.566406C104.949 -0.839844 105.414 -0.976562 105.961 -0.976562C106.75 -0.976562 107.39 -0.699219 107.883 -0.144531C108.375 0.402344 108.621 1.14453 108.621 2.08203C108.621 2.48047 108.558 2.85938 108.433 3.21875C108.316 3.57812 108.137 3.91016 107.894 4.21484C107.66 4.51953 107.336 4.76172 106.922 4.94141C106.508 5.12109 106.035 5.21094 105.504 5.21094C104.793 5.21094 104.199 5.03516 103.722 4.68359C103.246 4.32422 102.887 3.85547 102.644 3.27734ZM109.84 5V-4.26953H111.387V-0.0742188H111.41L115.008 -4.26953H116.965L113.379 -0.214844L117.059 5H115.195L112.406 0.875L111.387 2.03516V5H109.84ZM85.9095 16.4609V15.2891H86.3314C87.6048 15.2891 88.2416 14.8203 88.2416 13.8828V13.6484H89.5775V23.1055H87.9955V16.4609H85.9095ZM93.5152 16.6602C93.5152 17.2227 93.648 17.6758 93.9136 18.0195C94.187 18.3633 94.5308 18.5352 94.9448 18.5352C95.3667 18.5352 95.7066 18.3633 95.9644 18.0195C96.23 17.668 96.3628 17.2148 96.3628 16.6602C96.3628 16.1211 96.2339 15.6758 95.9761 15.3242C95.7261 14.9648 95.3823 14.7852 94.9448 14.7852C94.523 14.7852 94.1792 14.9609 93.9136 15.3125C93.648 15.6641 93.5152 16.1133 93.5152 16.6602ZM91.9566 21.2891L93.1987 20.8789C93.5581 21.5898 94.0425 21.9453 94.6519 21.9453C94.9722 21.9453 95.2495 21.8555 95.4839 21.6758C95.7261 21.4961 95.9136 21.2539 96.0464 20.9492C96.1792 20.6445 96.2769 20.3281 96.3394 20C96.4019 19.6641 96.437 19.3047 96.4448 18.9219C96.062 19.5 95.4878 19.7891 94.7222 19.7891C93.9487 19.7891 93.2925 19.5078 92.7534 18.9453C92.2222 18.375 91.9566 17.6172 91.9566 16.6719C91.9566 15.7422 92.2339 14.9844 92.7886 14.3984C93.3511 13.8125 94.0659 13.5195 94.9331 13.5195C95.6675 13.5195 96.2808 13.7539 96.773 14.2227C97.2652 14.6914 97.6011 15.3086 97.7808 16.0742C97.898 16.582 97.9566 17.2031 97.9566 17.9375C97.9566 19.6172 97.6831 20.918 97.1362 21.8398C96.5894 22.7539 95.7573 23.2109 94.6402 23.2109C93.9917 23.2109 93.4292 23.0156 92.9527 22.625C92.4761 22.2344 92.1441 21.7891 91.9566 21.2891ZM98.6716 24.9805L99.7966 21.1836H101.507L99.8786 24.9805H98.6716ZM102.703 16.0156C102.883 15.2422 103.219 14.6328 103.711 14.1875C104.203 13.7422 104.847 13.5195 105.644 13.5195C106.48 13.5195 107.164 13.7617 107.695 14.2461C108.226 14.7227 108.492 15.3711 108.492 16.1914C108.492 16.7227 108.371 17.207 108.129 17.6445C107.887 18.0742 107.535 18.5078 107.074 18.9453C106.988 19.0312 106.765 19.25 106.406 19.6016C106.047 19.9531 105.801 20.1992 105.668 20.3398C105.543 20.4727 105.375 20.6758 105.164 20.9492C104.961 21.2148 104.797 21.4766 104.672 21.7344H108.469V23H102.797C102.797 22.6328 102.855 22.2656 102.972 21.8984C103.097 21.5234 103.238 21.1992 103.394 20.9258C103.558 20.6523 103.789 20.3438 104.086 20C104.39 19.6484 104.64 19.375 104.836 19.1797C105.039 18.9844 105.32 18.7148 105.68 18.3711C105.765 18.293 105.828 18.2344 105.867 18.1953C106.555 17.5391 106.898 16.8594 106.898 16.1562C106.898 15.7266 106.781 15.3906 106.547 15.1484C106.312 14.9062 106.004 14.7852 105.621 14.7852C104.801 14.7852 104.265 15.3242 104.015 16.4023L102.703 16.0156ZM109.84 23V13.7305H111.387V17.9258H111.41L115.008 13.7305H116.965L113.379 17.7852L117.059 23H115.195L112.406 18.875L111.387 20.0352V23H109.84ZM85.9095 34.4609V33.2891H86.3314C87.6048 33.2891 88.2416 32.8203 88.2416 31.8828V31.6484H89.5775V41.1055H87.9955V34.4609H85.9095ZM93.8081 34.1445C93.8081 34.5508 93.9214 34.8789 94.148 35.1289C94.3823 35.3789 94.6792 35.5039 95.0386 35.5039C95.398 35.5039 95.6909 35.3789 95.9175 35.1289C96.1441 34.8711 96.2573 34.543 96.2573 34.1445C96.2573 33.7617 96.1441 33.4414 95.9175 33.1836C95.6987 32.918 95.4058 32.7852 95.0386 32.7852C94.6714 32.7852 94.3745 32.918 94.148 33.1836C93.9214 33.4414 93.8081 33.7617 93.8081 34.1445ZM91.9331 38.457C91.9331 37.8398 92.0933 37.3398 92.4136 36.957C92.7417 36.5664 93.1206 36.2852 93.5503 36.1133C92.6597 35.6523 92.2144 34.9727 92.2144 34.0742C92.2144 33.332 92.4839 32.7227 93.023 32.2461C93.562 31.7617 94.2339 31.5195 95.0386 31.5195C95.8433 31.5195 96.5112 31.7617 97.0425 32.2461C97.5816 32.7227 97.8511 33.332 97.8511 34.0742C97.8511 34.9805 97.4058 35.6602 96.5152 36.1133C96.9761 36.3008 97.3628 36.5898 97.6753 36.9805C97.9956 37.3711 98.1558 37.8633 98.1558 38.457C98.1558 39.2773 97.8628 39.9414 97.2769 40.4492C96.6987 40.957 95.9527 41.2109 95.0386 41.2109C94.1714 41.2109 93.437 40.9688 92.8355 40.4844C92.2339 40 91.9331 39.3242 91.9331 38.457ZM93.5269 38.375C93.5269 38.8281 93.6675 39.2031 93.9487 39.5C94.23 39.7969 94.5933 39.9453 95.0386 39.9453C95.4839 39.9453 95.8472 39.7969 96.1284 39.5C96.4097 39.2031 96.5503 38.8281 96.5503 38.375C96.5503 37.9375 96.4097 37.5586 96.1284 37.2383C95.8472 36.918 95.4839 36.7578 95.0386 36.7578C94.6011 36.7578 94.2378 36.918 93.9487 37.2383C93.6675 37.5508 93.5269 37.9297 93.5269 38.375ZM98.6716 42.9805L99.7966 39.1836H101.507L99.8786 42.9805H98.6716ZM102.644 39.2773L103.922 38.8203C104.062 39.1484 104.269 39.418 104.543 39.6289C104.816 39.8398 105.117 39.9453 105.445 39.9453C105.937 39.9453 106.324 39.7812 106.605 39.4531C106.894 39.1172 107.039 38.6719 107.039 38.1172C107.039 37.5781 106.887 37.1367 106.582 36.793C106.277 36.4492 105.89 36.2773 105.422 36.2773C104.844 36.2773 104.34 36.5586 103.91 37.1211L102.937 36.7461L103.43 31.7305H108.117V33.0078H104.847L104.566 35.4336C104.949 35.1602 105.414 35.0234 105.961 35.0234C106.75 35.0234 107.39 35.3008 107.883 35.8555C108.375 36.4023 108.621 37.1445 108.621 38.082C108.621 38.4805 108.558 38.8594 108.433 39.2188C108.316 39.5781 108.137 39.9102 107.894 40.2148C107.66 40.5195 107.336 40.7617 106.922 40.9414C106.508 41.1211 106.035 41.2109 105.504 41.2109C104.793 41.2109 104.199 41.0352 103.722 40.6836C103.246 40.3242 102.887 39.8555 102.644 39.2773ZM109.84 41V31.7305H111.387V35.9258H111.41L115.008 31.7305H116.965L113.379 35.7852L117.059 41H115.195L112.406 36.875L111.387 38.0352V41H109.84ZM85.9095 52.4609V51.2891H86.3314C87.6048 51.2891 88.2416 50.8203 88.2416 49.8828V49.6484H89.5775V59.1055H87.9955V52.4609H85.9095ZM93.8081 52.1445C93.8081 52.5508 93.9214 52.8789 94.148 53.1289C94.3823 53.3789 94.6792 53.5039 95.0386 53.5039C95.398 53.5039 95.6909 53.3789 95.9175 53.1289C96.1441 52.8711 96.2573 52.543 96.2573 52.1445C96.2573 51.7617 96.1441 51.4414 95.9175 51.1836C95.6987 50.918 95.4058 50.7852 95.0386 50.7852C94.6714 50.7852 94.3745 50.918 94.148 51.1836C93.9214 51.4414 93.8081 51.7617 93.8081 52.1445ZM91.9331 56.457C91.9331 55.8398 92.0933 55.3398 92.4136 54.957C92.7417 54.5664 93.1206 54.2852 93.5503 54.1133C92.6597 53.6523 92.2144 52.9727 92.2144 52.0742C92.2144 51.332 92.4839 50.7227 93.023 50.2461C93.562 49.7617 94.2339 49.5195 95.0386 49.5195C95.8433 49.5195 96.5112 49.7617 97.0425 50.2461C97.5816 50.7227 97.8511 51.332 97.8511 52.0742C97.8511 52.9805 97.4058 53.6602 96.5152 54.1133C96.9761 54.3008 97.3628 54.5898 97.6753 54.9805C97.9956 55.3711 98.1558 55.8633 98.1558 56.457C98.1558 57.2773 97.8628 57.9414 97.2769 58.4492C96.6987 58.957 95.9527 59.2109 95.0386 59.2109C94.1714 59.2109 93.437 58.9688 92.8355 58.4844C92.2339 58 91.9331 57.3242 91.9331 56.457ZM93.5269 56.375C93.5269 56.8281 93.6675 57.2031 93.9487 57.5C94.23 57.7969 94.5933 57.9453 95.0386 57.9453C95.4839 57.9453 95.8472 57.7969 96.1284 57.5C96.4097 57.2031 96.5503 56.8281 96.5503 56.375C96.5503 55.9375 96.4097 55.5586 96.1284 55.2383C95.8472 54.918 95.4839 54.7578 95.0386 54.7578C94.6011 54.7578 94.2378 54.918 93.9487 55.2383C93.6675 55.5508 93.5269 55.9297 93.5269 56.375ZM98.6716 60.9805L99.7966 57.1836H101.507L99.8786 60.9805H98.6716ZM102.527 57.125L103.769 56.668C104.137 57.5195 104.73 57.9453 105.551 57.9453C105.996 57.9453 106.371 57.8086 106.676 57.5352C106.98 57.2539 107.133 56.8594 107.133 56.3516C107.133 55.8906 106.965 55.5156 106.629 55.2266C106.293 54.9375 105.867 54.793 105.351 54.793C105.07 54.793 104.789 54.8086 104.508 54.8398V53.5742C104.711 53.5898 104.976 53.5977 105.305 53.5977C105.719 53.5977 106.07 53.4688 106.359 53.2109C106.656 52.9531 106.805 52.5977 106.805 52.1445C106.805 51.7461 106.68 51.4219 106.43 51.1719C106.18 50.9141 105.863 50.7852 105.48 50.7852C104.808 50.7852 104.316 51.2305 104.004 52.1211L102.738 51.7227C102.902 51.0742 103.23 50.5469 103.722 50.1406C104.222 49.7266 104.84 49.5195 105.574 49.5195C106.433 49.5195 107.117 49.7539 107.625 50.2227C108.133 50.6836 108.387 51.2734 108.387 51.9922C108.387 52.4688 108.262 52.8945 108.012 53.2695C107.769 53.6445 107.469 53.9258 107.109 54.1133C107.539 54.2617 107.914 54.5273 108.234 54.9102C108.562 55.2852 108.726 55.7656 108.726 56.3516C108.726 57.25 108.437 57.9531 107.859 58.4609C107.289 58.9609 106.523 59.2109 105.562 59.2109C104.789 59.2109 104.133 59.0078 103.594 58.6016C103.062 58.1953 102.707 57.7031 102.527 57.125ZM109.84 59V49.7305H111.387V53.9258H111.41L115.008 49.7305H116.965L113.379 53.7852L117.059 59H115.195L112.406 54.875L111.387 56.0352V59H109.84Z" fill="white"/>
</svg>
