<svg width="118" height="158" viewBox="0 0 118 158" fill="none" xmlns="http://www.w3.org/2000/svg">
<rect opacity="0.12" width="107" height="18" transform="matrix(1 0 0 -1 10 157)" fill="#20C997"/>
<rect opacity="0.12" width="94" height="18" transform="matrix(1 0 0 -1 23 139)" fill="#20C997"/>
<rect opacity="0.12" width="71" height="18" transform="matrix(1 0 0 -1 46 121)" fill="#20C997"/>
<rect opacity="0.12" width="54" height="18" transform="matrix(1 0 0 -1 63 103)" fill="#20C997"/>
<rect opacity="0.12" width="40" height="18" transform="matrix(1 0 0 -1 77 85)" fill="#20C997"/>
<rect opacity="0.12" width="20" height="18" transform="matrix(1 0 0 -1 97 67)" fill="#20C997"/>
<path d="M0.269531 57.9766L4.33594 51.8008H5.49609V57.9531H6.67969V59.0547H5.49609V61.0938H4.16016V59.0547H0.269531V57.9766ZM1.54688 57.9531H4.16016V55.0938C4.16016 54.6484 4.17578 54.2188 4.20703 53.8047H4.16016C4.07422 53.9609 3.94141 54.1797 3.76172 54.4609C3.58984 54.7422 3.49219 54.9023 3.46875 54.9414L1.54688 57.9531ZM6.87906 59.2422L7.95719 58.8438C8.35563 59.6875 8.96891 60.1094 9.79703 60.1094C10.2814 60.1094 10.6838 59.9648 11.0041 59.6758C11.3322 59.3789 11.4963 58.9609 11.4963 58.4219C11.4963 57.9219 11.3166 57.5234 10.9572 57.2266C10.6056 56.9297 10.1603 56.7812 9.62125 56.7812C9.39469 56.7812 9.12906 56.793 8.82438 56.8164V55.7266C9.01188 55.7422 9.26188 55.75 9.57438 55.75C10.0197 55.75 10.3947 55.6133 10.6994 55.3398C11.0041 55.0664 11.1564 54.6914 11.1564 54.2148C11.1564 53.8008 11.0236 53.4609 10.758 53.1953C10.4923 52.9219 10.1525 52.7852 9.73844 52.7852C9.03531 52.7852 8.51969 53.2266 8.19156 54.1094L7.09 53.7695C7.26188 53.1523 7.58219 52.6523 8.05094 52.2695C8.51969 51.8789 9.10953 51.6836 9.82047 51.6836C10.6486 51.6836 11.3088 51.9102 11.8009 52.3633C12.2931 52.8164 12.5392 53.3906 12.5392 54.0859C12.5392 54.5781 12.4103 55.0078 12.1525 55.375C11.9025 55.7422 11.5939 56.0117 11.2267 56.1836C11.672 56.3242 12.0588 56.5859 12.3869 56.9688C12.7228 57.3438 12.8908 57.8281 12.8908 58.4219C12.8908 59.2969 12.6095 59.9805 12.047 60.4727C11.4845 60.9648 10.7384 61.2109 9.80875 61.2109C9.07438 61.2109 8.44938 61.0234 7.93375 60.6484C7.41813 60.2656 7.06656 59.7969 6.87906 59.2422ZM13.5355 62.9922L14.6019 59.3242H16.1722L14.5784 62.9922H13.5355ZM19.0083 54.2148C19.0083 54.6445 19.1372 54.9922 19.395 55.2578C19.6606 55.5234 19.9848 55.6562 20.3677 55.6562C20.7583 55.6562 21.0786 55.5234 21.3286 55.2578C21.5864 54.9844 21.7153 54.6367 21.7153 54.2148C21.7153 53.8086 21.5903 53.4688 21.3403 53.1953C21.0903 52.9219 20.7661 52.7852 20.3677 52.7852C19.9614 52.7852 19.6333 52.9219 19.3833 53.1953C19.1333 53.4688 19.0083 53.8086 19.0083 54.2148ZM17.3559 58.5156C17.3559 57.8984 17.5161 57.3945 17.8364 57.0039C18.1645 56.6133 18.5473 56.3359 18.9848 56.1719C18.0864 55.7422 17.6372 55.0703 17.6372 54.1562C17.6372 53.4453 17.895 52.8555 18.4106 52.3867C18.9341 51.918 19.5864 51.6836 20.3677 51.6836C21.1489 51.6836 21.7973 51.918 22.313 52.3867C22.8364 52.8555 23.0981 53.4453 23.0981 54.1562C23.0981 54.6484 22.9692 55.0625 22.7114 55.3984C22.4536 55.7344 22.1294 55.9922 21.7388 56.1719C22.1997 56.3359 22.5903 56.6172 22.9106 57.0156C23.2309 57.4141 23.3911 57.918 23.3911 58.5273C23.3911 59.3242 23.1098 59.9727 22.5473 60.4727C21.9848 60.9648 21.2583 61.2109 20.3677 61.2109C19.5239 61.2109 18.8091 60.9727 18.2231 60.4961C17.645 60.0117 17.3559 59.3516 17.3559 58.5156ZM18.727 58.4453C18.727 58.9219 18.8794 59.3203 19.1841 59.6406C19.4966 59.9531 19.8911 60.1094 20.3677 60.1094C20.8442 60.1094 21.2348 59.9531 21.5395 59.6406C21.852 59.3203 22.0083 58.9219 22.0083 58.4453C22.0083 57.9766 21.852 57.5781 21.5395 57.25C21.2348 56.9141 20.8442 56.7461 20.3677 56.7461C19.8989 56.7461 19.5083 56.9102 19.1958 57.2383C18.8833 57.5664 18.727 57.9688 18.727 58.4453ZM24.4811 54.4023V53.3828H24.8795C26.1061 53.3828 26.7194 52.9414 26.7194 52.0586V51.8125H27.8795V61.1055H26.5084V54.4023H24.4811ZM30.9734 54.4023V53.3828H31.3719C32.5984 53.3828 33.2117 52.9414 33.2117 52.0586V51.8125H34.3719V61.1055H33.0008V54.4023H30.9734ZM0.269531 75.9766L4.33594 69.8008H5.49609V75.9531H6.67969V77.0547H5.49609V79.0938H4.16016V77.0547H0.269531V75.9766ZM1.54688 75.9531H4.16016V73.0938C4.16016 72.6484 4.17578 72.2188 4.20703 71.8047H4.16016C4.07422 71.9609 3.94141 72.1797 3.76172 72.4609C3.58984 72.7422 3.49219 72.9023 3.46875 72.9414L1.54688 75.9531ZM6.87906 77.2422L7.95719 76.8438C8.35563 77.6875 8.96891 78.1094 9.79703 78.1094C10.2814 78.1094 10.6838 77.9648 11.0041 77.6758C11.3322 77.3789 11.4963 76.9609 11.4963 76.4219C11.4963 75.9219 11.3166 75.5234 10.9572 75.2266C10.6056 74.9297 10.1603 74.7812 9.62125 74.7812C9.39469 74.7812 9.12906 74.793 8.82438 74.8164V73.7266C9.01188 73.7422 9.26188 73.75 9.57438 73.75C10.0197 73.75 10.3947 73.6133 10.6994 73.3398C11.0041 73.0664 11.1564 72.6914 11.1564 72.2148C11.1564 71.8008 11.0236 71.4609 10.758 71.1953C10.4923 70.9219 10.1525 70.7852 9.73844 70.7852C9.03531 70.7852 8.51969 71.2266 8.19156 72.1094L7.09 71.7695C7.26188 71.1523 7.58219 70.6523 8.05094 70.2695C8.51969 69.8789 9.10953 69.6836 9.82047 69.6836C10.6486 69.6836 11.3088 69.9102 11.8009 70.3633C12.2931 70.8164 12.5392 71.3906 12.5392 72.0859C12.5392 72.5781 12.4103 73.0078 12.1525 73.375C11.9025 73.7422 11.5939 74.0117 11.2267 74.1836C11.672 74.3242 12.0588 74.5859 12.3869 74.9688C12.7228 75.3438 12.8908 75.8281 12.8908 76.4219C12.8908 77.2969 12.6095 77.9805 12.047 78.4727C11.4845 78.9648 10.7384 79.2109 9.80875 79.2109C9.07438 79.2109 8.44938 79.0234 7.93375 78.6484C7.41813 78.2656 7.06656 77.7969 6.87906 77.2422ZM13.5355 80.9922L14.6019 77.3242H16.1722L14.5784 80.9922H13.5355ZM19.0083 72.2148C19.0083 72.6445 19.1372 72.9922 19.395 73.2578C19.6606 73.5234 19.9848 73.6562 20.3677 73.6562C20.7583 73.6562 21.0786 73.5234 21.3286 73.2578C21.5864 72.9844 21.7153 72.6367 21.7153 72.2148C21.7153 71.8086 21.5903 71.4688 21.3403 71.1953C21.0903 70.9219 20.7661 70.7852 20.3677 70.7852C19.9614 70.7852 19.6333 70.9219 19.3833 71.1953C19.1333 71.4688 19.0083 71.8086 19.0083 72.2148ZM17.3559 76.5156C17.3559 75.8984 17.5161 75.3945 17.8364 75.0039C18.1645 74.6133 18.5473 74.3359 18.9848 74.1719C18.0864 73.7422 17.6372 73.0703 17.6372 72.1562C17.6372 71.4453 17.895 70.8555 18.4106 70.3867C18.9341 69.918 19.5864 69.6836 20.3677 69.6836C21.1489 69.6836 21.7973 69.918 22.313 70.3867C22.8364 70.8555 23.0981 71.4453 23.0981 72.1562C23.0981 72.6484 22.9692 73.0625 22.7114 73.3984C22.4536 73.7344 22.1294 73.9922 21.7388 74.1719C22.1997 74.3359 22.5903 74.6172 22.9106 75.0156C23.2309 75.4141 23.3911 75.918 23.3911 76.5273C23.3911 77.3242 23.1098 77.9727 22.5473 78.4727C21.9848 78.9648 21.2583 79.2109 20.3677 79.2109C19.5239 79.2109 18.8091 78.9727 18.2231 78.4961C17.645 78.0117 17.3559 77.3516 17.3559 76.5156ZM18.727 76.4453C18.727 76.9219 18.8794 77.3203 19.1841 77.6406C19.4966 77.9531 19.8911 78.1094 20.3677 78.1094C20.8442 78.1094 21.2348 77.9531 21.5395 77.6406C21.852 77.3203 22.0083 76.9219 22.0083 76.4453C22.0083 75.9766 21.852 75.5781 21.5395 75.25C21.2348 74.9141 20.8442 74.7461 20.3677 74.7461C19.8989 74.7461 19.5083 74.9102 19.1958 75.2383C18.8833 75.5664 18.727 75.9688 18.727 76.4453ZM24.4811 72.4023V71.3828H24.8795C26.1061 71.3828 26.7194 70.9414 26.7194 70.0586V69.8125H27.8795V79.1055H26.5084V72.4023H24.4811ZM30.4578 72.0742C30.6297 71.332 30.9539 70.75 31.4305 70.3281C31.9148 69.8984 32.5398 69.6836 33.3055 69.6836C34.1102 69.6836 34.7703 69.9141 35.2859 70.375C35.8016 70.8359 36.0594 71.4688 36.0594 72.2734C36.0594 73.1797 35.5906 74.082 34.6531 74.9805C34.5672 75.0586 34.3875 75.2305 34.1141 75.4961C33.8406 75.7617 33.6609 75.9375 33.575 76.0234C33.4969 76.1016 33.3563 76.2461 33.1531 76.457C32.9578 76.6602 32.8172 76.8242 32.7313 76.9492C32.6453 77.0664 32.5438 77.2109 32.4266 77.3828C32.3172 77.5547 32.2234 77.7266 32.1453 77.8984H36.0359V79H30.5281C30.5281 78.6562 30.5867 78.3125 30.7039 77.9688C30.8289 77.625 30.9695 77.3203 31.1258 77.0547C31.282 76.7891 31.5086 76.4883 31.8055 76.1523C32.1023 75.8086 32.3523 75.5352 32.5555 75.332C32.7664 75.1211 33.0555 74.8438 33.4227 74.5C33.5086 74.4219 33.5711 74.3633 33.6102 74.3242C34.3211 73.6523 34.6766 72.9609 34.6766 72.25C34.6766 71.7891 34.5516 71.4297 34.3016 71.1719C34.0516 70.9141 33.7156 70.7852 33.2938 70.7852C32.8563 70.7852 32.493 70.9297 32.2039 71.2188C31.9227 71.5078 31.7195 71.9062 31.5945 72.4141L30.4578 72.0742ZM0.269531 93.9766L4.33594 87.8008H5.49609V93.9531H6.67969V95.0547H5.49609V97.0938H4.16016V95.0547H0.269531V93.9766ZM1.54688 93.9531H4.16016V91.0938C4.16016 90.6484 4.17578 90.2188 4.20703 89.8047H4.16016C4.07422 89.9609 3.94141 90.1797 3.76172 90.4609C3.58984 90.7422 3.49219 90.9023 3.46875 90.9414L1.54688 93.9531ZM6.87906 95.2422L7.95719 94.8438C8.35563 95.6875 8.96891 96.1094 9.79703 96.1094C10.2814 96.1094 10.6838 95.9648 11.0041 95.6758C11.3322 95.3789 11.4963 94.9609 11.4963 94.4219C11.4963 93.9219 11.3166 93.5234 10.9572 93.2266C10.6056 92.9297 10.1603 92.7812 9.62125 92.7812C9.39469 92.7812 9.12906 92.793 8.82438 92.8164V91.7266C9.01188 91.7422 9.26188 91.75 9.57438 91.75C10.0197 91.75 10.3947 91.6133 10.6994 91.3398C11.0041 91.0664 11.1564 90.6914 11.1564 90.2148C11.1564 89.8008 11.0236 89.4609 10.758 89.1953C10.4923 88.9219 10.1525 88.7852 9.73844 88.7852C9.03531 88.7852 8.51969 89.2266 8.19156 90.1094L7.09 89.7695C7.26188 89.1523 7.58219 88.6523 8.05094 88.2695C8.51969 87.8789 9.10953 87.6836 9.82047 87.6836C10.6486 87.6836 11.3088 87.9102 11.8009 88.3633C12.2931 88.8164 12.5392 89.3906 12.5392 90.0859C12.5392 90.5781 12.4103 91.0078 12.1525 91.375C11.9025 91.7422 11.5939 92.0117 11.2267 92.1836C11.672 92.3242 12.0588 92.5859 12.3869 92.9688C12.7228 93.3438 12.8908 93.8281 12.8908 94.4219C12.8908 95.2969 12.6095 95.9805 12.047 96.4727C11.4845 96.9648 10.7384 97.2109 9.80875 97.2109C9.07438 97.2109 8.44938 97.0234 7.93375 96.6484C7.41813 96.2656 7.06656 95.7969 6.87906 95.2422ZM13.5355 98.9922L14.6019 95.3242H16.1722L14.5784 98.9922H13.5355ZM17.4263 89.0312V87.8945H23.1684V88.8086C21.6763 91.207 20.5786 93.9688 19.8755 97.0938H18.4927C19.0317 94.4062 20.0708 91.7188 21.6098 89.0312H17.4263ZM24.4811 90.4023V89.3828H24.8795C26.1061 89.3828 26.7194 88.9414 26.7194 88.0586V87.8125H27.8795V97.1055H26.5084V90.4023H24.4811ZM30.1648 93.9766L34.2313 87.8008H35.3914V93.9531H36.575V95.0547H35.3914V97.0938H34.0555V95.0547H30.1648V93.9766ZM31.4422 93.9531H34.0555V91.0938C34.0555 90.6484 34.0711 90.2188 34.1023 89.8047H34.0555C33.9695 89.9609 33.8367 90.1797 33.657 90.4609C33.4852 90.7422 33.3875 90.9023 33.3641 90.9414L31.4422 93.9531ZM0.269531 111.977L4.33594 105.801H5.49609V111.953H6.67969V113.055H5.49609V115.094H4.16016V113.055H0.269531V111.977ZM1.54688 111.953H4.16016V109.094C4.16016 108.648 4.17578 108.219 4.20703 107.805H4.16016C4.07422 107.961 3.94141 108.18 3.76172 108.461C3.58984 108.742 3.49219 108.902 3.46875 108.941L1.54688 111.953ZM6.87906 113.242L7.95719 112.844C8.35563 113.688 8.96891 114.109 9.79703 114.109C10.2814 114.109 10.6838 113.965 11.0041 113.676C11.3322 113.379 11.4963 112.961 11.4963 112.422C11.4963 111.922 11.3166 111.523 10.9572 111.227C10.6056 110.93 10.1603 110.781 9.62125 110.781C9.39469 110.781 9.12906 110.793 8.82438 110.816V109.727C9.01188 109.742 9.26188 109.75 9.57438 109.75C10.0197 109.75 10.3947 109.613 10.6994 109.34C11.0041 109.066 11.1564 108.691 11.1564 108.215C11.1564 107.801 11.0236 107.461 10.758 107.195C10.4923 106.922 10.1525 106.785 9.73844 106.785C9.03531 106.785 8.51969 107.227 8.19156 108.109L7.09 107.77C7.26188 107.152 7.58219 106.652 8.05094 106.27C8.51969 105.879 9.10953 105.684 9.82047 105.684C10.6486 105.684 11.3088 105.91 11.8009 106.363C12.2931 106.816 12.5392 107.391 12.5392 108.086C12.5392 108.578 12.4103 109.008 12.1525 109.375C11.9025 109.742 11.5939 110.012 11.2267 110.184C11.672 110.324 12.0588 110.586 12.3869 110.969C12.7228 111.344 12.8908 111.828 12.8908 112.422C12.8908 113.297 12.6095 113.98 12.047 114.473C11.4845 114.965 10.7384 115.211 9.80875 115.211C9.07438 115.211 8.44938 115.023 7.93375 114.648C7.41813 114.266 7.06656 113.797 6.87906 113.242ZM13.5355 116.992L14.6019 113.324H16.1722L14.5784 116.992H13.5355ZM17.4263 107.031V105.895H23.1684V106.809C21.6763 109.207 20.5786 111.969 19.8755 115.094H18.4927C19.0317 112.406 20.0708 109.719 21.6098 107.031H17.4263ZM24.4811 108.402V107.383H24.8795C26.1061 107.383 26.7194 106.941 26.7194 106.059V105.812H27.8795V115.105H26.5084V108.402H24.4811ZM31.8523 112.117C31.8523 112.719 31.9969 113.203 32.2859 113.57C32.575 113.93 32.9539 114.109 33.4227 114.109C33.8758 114.109 34.2469 113.93 34.5359 113.57C34.8328 113.211 34.9813 112.727 34.9813 112.117C34.9813 111.5 34.8328 111.016 34.5359 110.664C34.2469 110.305 33.8719 110.125 33.4109 110.125C32.9578 110.125 32.5828 110.312 32.2859 110.688C31.9969 111.055 31.8523 111.531 31.8523 112.117ZM30.4461 110.887C30.4461 110.199 30.5047 109.555 30.6219 108.953C30.7469 108.352 30.9344 107.801 31.1844 107.301C31.4344 106.801 31.7742 106.406 32.2039 106.117C32.6414 105.828 33.1453 105.684 33.7156 105.684C34.8875 105.684 35.7391 106.285 36.2703 107.488L35.2156 107.852C34.8328 107.141 34.3367 106.785 33.7273 106.785C32.8133 106.785 32.2195 107.535 31.9461 109.035C31.868 109.402 31.8172 109.754 31.7938 110.09C31.9422 109.777 32.1727 109.523 32.4852 109.328C32.8055 109.125 33.1766 109.023 33.5984 109.023C34.4031 109.023 35.0594 109.316 35.5672 109.902C36.0828 110.48 36.3406 111.215 36.3406 112.105C36.3406 112.996 36.0828 113.738 35.5672 114.332C35.0594 114.918 34.3602 115.211 33.4695 115.211C32.5555 115.211 31.8367 114.887 31.3133 114.238C30.7352 113.535 30.4461 112.418 30.4461 110.887ZM0.269531 129.977L4.33594 123.801H5.49609V129.953H6.67969V131.055H5.49609V133.094H4.16016V131.055H0.269531V129.977ZM1.54688 129.953H4.16016V127.094C4.16016 126.648 4.17578 126.219 4.20703 125.805H4.16016C4.07422 125.961 3.94141 126.18 3.76172 126.461C3.58984 126.742 3.49219 126.902 3.46875 126.941L1.54688 129.953ZM6.87906 131.242L7.95719 130.844C8.35563 131.688 8.96891 132.109 9.79703 132.109C10.2814 132.109 10.6838 131.965 11.0041 131.676C11.3322 131.379 11.4963 130.961 11.4963 130.422C11.4963 129.922 11.3166 129.523 10.9572 129.227C10.6056 128.93 10.1603 128.781 9.62125 128.781C9.39469 128.781 9.12906 128.793 8.82438 128.816V127.727C9.01188 127.742 9.26188 127.75 9.57438 127.75C10.0197 127.75 10.3947 127.613 10.6994 127.34C11.0041 127.066 11.1564 126.691 11.1564 126.215C11.1564 125.801 11.0236 125.461 10.758 125.195C10.4923 124.922 10.1525 124.785 9.73844 124.785C9.03531 124.785 8.51969 125.227 8.19156 126.109L7.09 125.77C7.26188 125.152 7.58219 124.652 8.05094 124.27C8.51969 123.879 9.10953 123.684 9.82047 123.684C10.6486 123.684 11.3088 123.91 11.8009 124.363C12.2931 124.816 12.5392 125.391 12.5392 126.086C12.5392 126.578 12.4103 127.008 12.1525 127.375C11.9025 127.742 11.5939 128.012 11.2267 128.184C11.672 128.324 12.0588 128.586 12.3869 128.969C12.7228 129.344 12.8908 129.828 12.8908 130.422C12.8908 131.297 12.6095 131.98 12.047 132.473C11.4845 132.965 10.7384 133.211 9.80875 133.211C9.07438 133.211 8.44938 133.023 7.93375 132.648C7.41813 132.266 7.06656 131.797 6.87906 131.242ZM13.5355 134.992L14.6019 131.324H16.1722L14.5784 134.992H13.5355ZM17.4263 125.031V123.895H23.1684V124.809C21.6763 127.207 20.5786 129.969 19.8755 133.094H18.4927C19.0317 130.406 20.0708 127.719 21.6098 125.031H17.4263ZM24.4811 126.402V125.383H24.8795C26.1061 125.383 26.7194 124.941 26.7194 124.059V123.812H27.8795V133.105H26.5084V126.402H24.4811ZM30.4109 125.031V123.895H36.1531V124.809C34.6609 127.207 33.5633 129.969 32.8602 133.094H31.4773C32.0164 130.406 33.0555 127.719 34.5945 125.031H30.4109ZM0.269531 147.977L4.33594 141.801H5.49609V147.953H6.67969V149.055H5.49609V151.094H4.16016V149.055H0.269531V147.977ZM1.54688 147.953H4.16016V145.094C4.16016 144.648 4.17578 144.219 4.20703 143.805H4.16016C4.07422 143.961 3.94141 144.18 3.76172 144.461C3.58984 144.742 3.49219 144.902 3.46875 144.941L1.54688 147.953ZM6.87906 149.242L7.95719 148.844C8.35563 149.688 8.96891 150.109 9.79703 150.109C10.2814 150.109 10.6838 149.965 11.0041 149.676C11.3322 149.379 11.4963 148.961 11.4963 148.422C11.4963 147.922 11.3166 147.523 10.9572 147.227C10.6056 146.93 10.1603 146.781 9.62125 146.781C9.39469 146.781 9.12906 146.793 8.82438 146.816V145.727C9.01188 145.742 9.26188 145.75 9.57438 145.75C10.0197 145.75 10.3947 145.613 10.6994 145.34C11.0041 145.066 11.1564 144.691 11.1564 144.215C11.1564 143.801 11.0236 143.461 10.758 143.195C10.4923 142.922 10.1525 142.785 9.73844 142.785C9.03531 142.785 8.51969 143.227 8.19156 144.109L7.09 143.77C7.26188 143.152 7.58219 142.652 8.05094 142.27C8.51969 141.879 9.10953 141.684 9.82047 141.684C10.6486 141.684 11.3088 141.91 11.8009 142.363C12.2931 142.816 12.5392 143.391 12.5392 144.086C12.5392 144.578 12.4103 145.008 12.1525 145.375C11.9025 145.742 11.5939 146.012 11.2267 146.184C11.672 146.324 12.0588 146.586 12.3869 146.969C12.7228 147.344 12.8908 147.828 12.8908 148.422C12.8908 149.297 12.6095 149.98 12.047 150.473C11.4845 150.965 10.7384 151.211 9.80875 151.211C9.07438 151.211 8.44938 151.023 7.93375 150.648C7.41813 150.266 7.06656 149.797 6.87906 149.242ZM13.5355 152.992L14.6019 149.324H16.1722L14.5784 152.992H13.5355ZM17.4263 143.031V141.895H23.1684V142.809C21.6763 145.207 20.5786 147.969 19.8755 151.094H18.4927C19.0317 148.406 20.0708 145.719 21.6098 143.031H17.4263ZM23.9655 144.074C24.1373 143.332 24.4616 142.75 24.9381 142.328C25.4225 141.898 26.0475 141.684 26.8131 141.684C27.6178 141.684 28.278 141.914 28.7936 142.375C29.3092 142.836 29.567 143.469 29.567 144.273C29.567 145.18 29.0983 146.082 28.1608 146.98C28.0748 147.059 27.8952 147.23 27.6217 147.496C27.3483 147.762 27.1686 147.938 27.0827 148.023C27.0045 148.102 26.8639 148.246 26.6608 148.457C26.4655 148.66 26.3248 148.824 26.2389 148.949C26.153 149.066 26.0514 149.211 25.9342 149.383C25.8248 149.555 25.7311 149.727 25.653 149.898H29.5436V151H24.0358C24.0358 150.656 24.0944 150.312 24.2116 149.969C24.3366 149.625 24.4772 149.32 24.6334 149.055C24.7897 148.789 25.0163 148.488 25.3131 148.152C25.61 147.809 25.86 147.535 26.0631 147.332C26.2741 147.121 26.5631 146.844 26.9303 146.5C27.0163 146.422 27.0788 146.363 27.1178 146.324C27.8288 145.652 28.1842 144.961 28.1842 144.25C28.1842 143.789 28.0592 143.43 27.8092 143.172C27.5592 142.914 27.2233 142.785 26.8014 142.785C26.3639 142.785 26.0006 142.93 25.7116 143.219C25.4303 143.508 25.2272 143.906 25.1022 144.414L23.9655 144.074ZM31.782 146.453C31.782 147.164 31.8289 147.781 31.9227 148.305C32.0164 148.828 32.1844 149.262 32.4266 149.605C32.6766 149.941 32.9891 150.109 33.3641 150.109C33.6531 150.109 33.8992 150.012 34.1023 149.816C34.3133 149.613 34.4734 149.332 34.5828 148.973C34.7 148.613 34.782 148.23 34.8289 147.824C34.8836 147.41 34.9109 146.953 34.9109 146.453C34.9109 145.938 34.8836 145.465 34.8289 145.035C34.7742 144.605 34.6844 144.219 34.5594 143.875C34.4422 143.531 34.2781 143.266 34.0672 143.078C33.8641 142.883 33.6219 142.785 33.3406 142.785C32.9734 142.785 32.6688 142.957 32.4266 143.301C32.1844 143.637 32.0164 144.07 31.9227 144.602C31.8289 145.125 31.782 145.742 31.782 146.453ZM30.3992 146.453C30.3992 145.57 30.4852 144.805 30.657 144.156C30.8289 143.508 31.0633 143.012 31.3602 142.668C31.657 142.324 31.9695 142.074 32.2977 141.918C32.6258 141.762 32.9734 141.684 33.3406 141.684C34.2781 141.684 35.0047 142.102 35.5203 142.938C36.0359 143.766 36.2938 144.938 36.2938 146.453C36.2938 147.898 36.0438 149.055 35.5438 149.922C35.0516 150.781 34.325 151.211 33.3641 151.211C32.9969 151.211 32.6492 151.133 32.3211 150.977C31.993 150.82 31.6805 150.57 31.3836 150.227C31.0867 149.883 30.8484 149.387 30.6688 148.738C30.4891 148.09 30.3992 147.328 30.3992 146.453Z" fill="#20C997"/>
<path d="M85.9095 55.4609V54.2891H86.3314C87.6048 54.2891 88.2416 53.8203 88.2416 52.8828V52.6484H89.5775V62.1055H87.9955V55.4609H85.9095ZM91.9917 60.2773L93.2691 59.8203C93.4097 60.1484 93.6167 60.418 93.8902 60.6289C94.1636 60.8398 94.4644 60.9453 94.7925 60.9453C95.2847 60.9453 95.6714 60.7812 95.9527 60.4531C96.2417 60.1172 96.3862 59.6719 96.3862 59.1172C96.3862 58.5781 96.2339 58.1367 95.9292 57.793C95.6245 57.4492 95.2378 57.2773 94.7691 57.2773C94.1909 57.2773 93.687 57.5586 93.2573 58.1211L92.2847 57.7461L92.7769 52.7305H97.4644V54.0078H94.1948L93.9136 56.4336C94.2964 56.1602 94.7612 56.0234 95.3081 56.0234C96.0972 56.0234 96.7378 56.3008 97.23 56.8555C97.7222 57.4023 97.9683 58.1445 97.9683 59.082C97.9683 59.4805 97.9058 59.8594 97.7808 60.2188C97.6636 60.5781 97.4839 60.9102 97.2417 61.2148C97.0073 61.5195 96.6831 61.7617 96.2691 61.9414C95.855 62.1211 95.3823 62.2109 94.8511 62.2109C94.1402 62.2109 93.5464 62.0352 93.0698 61.6836C92.5933 61.3242 92.2339 60.8555 91.9917 60.2773ZM98.6716 63.9805L99.7966 60.1836H101.507L99.8786 63.9805H98.6716ZM102.703 55.0156C102.883 54.2422 103.219 53.6328 103.711 53.1875C104.203 52.7422 104.847 52.5195 105.644 52.5195C106.48 52.5195 107.164 52.7617 107.695 53.2461C108.226 53.7227 108.492 54.3711 108.492 55.1914C108.492 55.7227 108.371 56.207 108.129 56.6445C107.887 57.0742 107.535 57.5078 107.074 57.9453C106.988 58.0312 106.765 58.25 106.406 58.6016C106.047 58.9531 105.801 59.1992 105.668 59.3398C105.543 59.4727 105.375 59.6758 105.164 59.9492C104.961 60.2148 104.797 60.4766 104.672 60.7344H108.469V62H102.797C102.797 61.6328 102.855 61.2656 102.972 60.8984C103.097 60.5234 103.238 60.1992 103.394 59.9258C103.558 59.6523 103.789 59.3438 104.086 59C104.39 58.6484 104.64 58.375 104.836 58.1797C105.039 57.9844 105.32 57.7148 105.68 57.3711C105.765 57.293 105.828 57.2344 105.867 57.1953C106.555 56.5391 106.898 55.8594 106.898 55.1562C106.898 54.7266 106.781 54.3906 106.547 54.1484C106.312 53.9062 106.004 53.7852 105.621 53.7852C104.801 53.7852 104.265 54.3242 104.015 55.4023L102.703 55.0156ZM109.84 62V52.7305H111.387V56.9258H111.41L115.008 52.7305H116.965L113.379 56.7852L117.059 62H115.195L112.406 57.875L111.387 59.0352V62H109.84ZM85.9095 73.4609V72.2891H86.3314C87.6048 72.2891 88.2416 71.8203 88.2416 70.8828V70.6484H89.5775V80.1055H87.9955V73.4609H85.9095ZM93.6441 77.0469C93.6441 77.625 93.7808 78.0859 94.0542 78.4297C94.3277 78.7734 94.6792 78.9453 95.1089 78.9453C95.5308 78.9453 95.8745 78.7773 96.1402 78.4414C96.4058 78.0977 96.5386 77.6328 96.5386 77.0469C96.5386 76.4453 96.4058 75.9766 96.1402 75.6406C95.8745 75.3047 95.5269 75.1367 95.0972 75.1367C94.6753 75.1367 94.3277 75.3125 94.0542 75.6641C93.7808 76.0156 93.6441 76.4766 93.6441 77.0469ZM92.0386 75.793C92.0386 75.082 92.1011 74.4219 92.2261 73.8125C92.3589 73.1953 92.5542 72.6367 92.812 72.1367C93.0698 71.6367 93.4175 71.2422 93.855 70.9531C94.3003 70.6641 94.812 70.5195 95.3902 70.5195C96.6323 70.5195 97.523 71.1562 98.062 72.4297L96.855 72.8516C96.4722 72.1406 95.9878 71.7852 95.4019 71.7852C94.605 71.7852 94.062 72.4375 93.773 73.7422C93.7027 74.0547 93.648 74.4102 93.6089 74.8086C93.7573 74.543 93.98 74.3203 94.2769 74.1406C94.5737 73.9609 94.9214 73.8711 95.3198 73.8711C96.1402 73.8711 96.8081 74.1719 97.3237 74.7734C97.8472 75.3672 98.1089 76.1211 98.1089 77.0352C98.1089 77.957 97.8472 78.7188 97.3237 79.3203C96.8003 79.9141 96.0777 80.2109 95.1558 80.2109C94.187 80.2109 93.4487 79.8828 92.9409 79.2266C92.3394 78.4844 92.0386 77.3398 92.0386 75.793ZM98.6716 81.9805L99.7966 78.1836H101.507L99.8786 81.9805H98.6716ZM103.183 73.4609V72.2891H103.605C104.879 72.2891 105.515 71.8203 105.515 70.8828V70.6484H106.851V80.1055H105.269V73.4609H103.183ZM109.84 80V70.7305H111.387V74.9258H111.41L115.008 70.7305H116.965L113.379 74.7852L117.059 80H115.195L112.406 75.875L111.387 77.0352V80H109.84ZM85.9095 91.4609V90.2891H86.3314C87.6048 90.2891 88.2416 89.8203 88.2416 88.8828V88.6484H89.5775V98.1055H87.9955V91.4609H85.9095ZM92.062 90.043V88.7305H97.9448V89.7734C96.4839 92.1016 95.3941 94.8711 94.6753 98.082H93.0816C93.605 95.3711 94.6284 92.6914 96.1519 90.043H92.062ZM98.6716 99.9805L99.7966 96.1836H101.507L99.8786 99.9805H98.6716ZM102.644 96.2773L103.922 95.8203C104.062 96.1484 104.269 96.418 104.543 96.6289C104.816 96.8398 105.117 96.9453 105.445 96.9453C105.937 96.9453 106.324 96.7812 106.605 96.4531C106.894 96.1172 107.039 95.6719 107.039 95.1172C107.039 94.5781 106.887 94.1367 106.582 93.793C106.277 93.4492 105.89 93.2773 105.422 93.2773C104.844 93.2773 104.34 93.5586 103.91 94.1211L102.937 93.7461L103.43 88.7305H108.117V90.0078H104.847L104.566 92.4336C104.949 92.1602 105.414 92.0234 105.961 92.0234C106.75 92.0234 107.39 92.3008 107.883 92.8555C108.375 93.4023 108.621 94.1445 108.621 95.082C108.621 95.4805 108.558 95.8594 108.433 96.2188C108.316 96.5781 108.137 96.9102 107.894 97.2148C107.66 97.5195 107.336 97.7617 106.922 97.9414C106.508 98.1211 106.035 98.2109 105.504 98.2109C104.793 98.2109 104.199 98.0352 103.722 97.6836C103.246 97.3242 102.887 96.8555 102.644 96.2773ZM109.84 98V88.7305H111.387V92.9258H111.41L115.008 88.7305H116.965L113.379 92.7852L117.059 98H115.195L112.406 93.875L111.387 95.0352V98H109.84ZM85.9095 109.461V108.289H86.3314C87.6048 108.289 88.2416 107.82 88.2416 106.883V106.648H89.5775V116.105H87.9955V109.461H85.9095ZM93.5152 109.66C93.5152 110.223 93.648 110.676 93.9136 111.02C94.187 111.363 94.5308 111.535 94.9448 111.535C95.3667 111.535 95.7066 111.363 95.9644 111.02C96.23 110.668 96.3628 110.215 96.3628 109.66C96.3628 109.121 96.2339 108.676 95.9761 108.324C95.7261 107.965 95.3823 107.785 94.9448 107.785C94.523 107.785 94.1792 107.961 93.9136 108.312C93.648 108.664 93.5152 109.113 93.5152 109.66ZM91.9566 114.289L93.1987 113.879C93.5581 114.59 94.0425 114.945 94.6519 114.945C94.9722 114.945 95.2495 114.855 95.4839 114.676C95.7261 114.496 95.9136 114.254 96.0464 113.949C96.1792 113.645 96.2769 113.328 96.3394 113C96.4019 112.664 96.437 112.305 96.4448 111.922C96.062 112.5 95.4878 112.789 94.7222 112.789C93.9487 112.789 93.2925 112.508 92.7534 111.945C92.2222 111.375 91.9566 110.617 91.9566 109.672C91.9566 108.742 92.2339 107.984 92.7886 107.398C93.3511 106.812 94.0659 106.52 94.9331 106.52C95.6675 106.52 96.2808 106.754 96.773 107.223C97.2652 107.691 97.6011 108.309 97.7808 109.074C97.898 109.582 97.9566 110.203 97.9566 110.938C97.9566 112.617 97.6831 113.918 97.1362 114.84C96.5894 115.754 95.7573 116.211 94.6402 116.211C93.9917 116.211 93.4292 116.016 92.9527 115.625C92.4761 115.234 92.1441 114.789 91.9566 114.289ZM98.6716 117.98L99.7966 114.184H101.507L99.8786 117.98H98.6716ZM102.703 109.016C102.883 108.242 103.219 107.633 103.711 107.188C104.203 106.742 104.847 106.52 105.644 106.52C106.48 106.52 107.164 106.762 107.695 107.246C108.226 107.723 108.492 108.371 108.492 109.191C108.492 109.723 108.371 110.207 108.129 110.645C107.887 111.074 107.535 111.508 107.074 111.945C106.988 112.031 106.765 112.25 106.406 112.602C106.047 112.953 105.801 113.199 105.668 113.34C105.543 113.473 105.375 113.676 105.164 113.949C104.961 114.215 104.797 114.477 104.672 114.734H108.469V116H102.797C102.797 115.633 102.855 115.266 102.972 114.898C103.097 114.523 103.238 114.199 103.394 113.926C103.558 113.652 103.789 113.344 104.086 113C104.39 112.648 104.64 112.375 104.836 112.18C105.039 111.984 105.32 111.715 105.68 111.371C105.765 111.293 105.828 111.234 105.867 111.195C106.555 110.539 106.898 109.859 106.898 109.156C106.898 108.727 106.781 108.391 106.547 108.148C106.312 107.906 106.004 107.785 105.621 107.785C104.801 107.785 104.265 108.324 104.015 109.402L102.703 109.016ZM109.84 116V106.73H111.387V110.926H111.41L115.008 106.73H116.965L113.379 110.785L117.059 116H115.195L112.406 111.875L111.387 113.035V116H109.84ZM85.9095 127.461V126.289H86.3314C87.6048 126.289 88.2416 125.82 88.2416 124.883V124.648H89.5775V134.105H87.9955V127.461H85.9095ZM93.8081 127.145C93.8081 127.551 93.9214 127.879 94.148 128.129C94.3823 128.379 94.6792 128.504 95.0386 128.504C95.398 128.504 95.6909 128.379 95.9175 128.129C96.1441 127.871 96.2573 127.543 96.2573 127.145C96.2573 126.762 96.1441 126.441 95.9175 126.184C95.6987 125.918 95.4058 125.785 95.0386 125.785C94.6714 125.785 94.3745 125.918 94.148 126.184C93.9214 126.441 93.8081 126.762 93.8081 127.145ZM91.9331 131.457C91.9331 130.84 92.0933 130.34 92.4136 129.957C92.7417 129.566 93.1206 129.285 93.5503 129.113C92.6597 128.652 92.2144 127.973 92.2144 127.074C92.2144 126.332 92.4839 125.723 93.023 125.246C93.562 124.762 94.2339 124.52 95.0386 124.52C95.8433 124.52 96.5112 124.762 97.0425 125.246C97.5816 125.723 97.8511 126.332 97.8511 127.074C97.8511 127.98 97.4058 128.66 96.5152 129.113C96.9761 129.301 97.3628 129.59 97.6753 129.98C97.9956 130.371 98.1558 130.863 98.1558 131.457C98.1558 132.277 97.8628 132.941 97.2769 133.449C96.6987 133.957 95.9527 134.211 95.0386 134.211C94.1714 134.211 93.437 133.969 92.8355 133.484C92.2339 133 91.9331 132.324 91.9331 131.457ZM93.5269 131.375C93.5269 131.828 93.6675 132.203 93.9487 132.5C94.23 132.797 94.5933 132.945 95.0386 132.945C95.4839 132.945 95.8472 132.797 96.1284 132.5C96.4097 132.203 96.5503 131.828 96.5503 131.375C96.5503 130.938 96.4097 130.559 96.1284 130.238C95.8472 129.918 95.4839 129.758 95.0386 129.758C94.6011 129.758 94.2378 129.918 93.9487 130.238C93.6675 130.551 93.5269 130.93 93.5269 131.375ZM98.6716 135.98L99.7966 132.184H101.507L99.8786 135.98H98.6716ZM102.644 132.277L103.922 131.82C104.062 132.148 104.269 132.418 104.543 132.629C104.816 132.84 105.117 132.945 105.445 132.945C105.937 132.945 106.324 132.781 106.605 132.453C106.894 132.117 107.039 131.672 107.039 131.117C107.039 130.578 106.887 130.137 106.582 129.793C106.277 129.449 105.89 129.277 105.422 129.277C104.844 129.277 104.34 129.559 103.91 130.121L102.937 129.746L103.43 124.73H108.117V126.008H104.847L104.566 128.434C104.949 128.16 105.414 128.023 105.961 128.023C106.75 128.023 107.39 128.301 107.883 128.855C108.375 129.402 108.621 130.145 108.621 131.082C108.621 131.48 108.558 131.859 108.433 132.219C108.316 132.578 108.137 132.91 107.894 133.215C107.66 133.52 107.336 133.762 106.922 133.941C106.508 134.121 106.035 134.211 105.504 134.211C104.793 134.211 104.199 134.035 103.722 133.684C103.246 133.324 102.887 132.855 102.644 132.277ZM109.84 134V124.73H111.387V128.926H111.41L115.008 124.73H116.965L113.379 128.785L117.059 134H115.195L112.406 129.875L111.387 131.035V134H109.84ZM85.4291 145.016C85.6087 144.242 85.9447 143.633 86.4369 143.188C86.9291 142.742 87.5736 142.52 88.3705 142.52C89.2064 142.52 89.89 142.762 90.4212 143.246C90.9525 143.723 91.2181 144.371 91.2181 145.191C91.2181 145.723 91.097 146.207 90.8548 146.645C90.6127 147.074 90.2611 147.508 89.8002 147.945C89.7142 148.031 89.4916 148.25 89.1322 148.602C88.7728 148.953 88.5267 149.199 88.3939 149.34C88.2689 149.473 88.1009 149.676 87.89 149.949C87.6869 150.215 87.5228 150.477 87.3978 150.734H91.1947V152H85.5228C85.5228 151.633 85.5814 151.266 85.6986 150.898C85.8236 150.523 85.9642 150.199 86.1205 149.926C86.2845 149.652 86.515 149.344 86.8119 149C87.1166 148.648 87.3666 148.375 87.5619 148.18C87.765 147.984 88.0462 147.715 88.4056 147.371C88.4916 147.293 88.5541 147.234 88.5931 147.195C89.2806 146.539 89.6244 145.859 89.6244 145.156C89.6244 144.727 89.5072 144.391 89.2728 144.148C89.0384 143.906 88.7298 143.785 88.347 143.785C87.5267 143.785 86.9916 144.324 86.7416 145.402L85.4291 145.016ZM92.5308 145.461V144.289H92.9527C94.2261 144.289 94.8628 143.82 94.8628 142.883V142.648H96.1987V152.105H94.6167V145.461H92.5308ZM98.6716 153.98L99.7966 150.184H101.507L99.8786 153.98H98.6716ZM102.527 150.125L103.769 149.668C104.137 150.52 104.73 150.945 105.551 150.945C105.996 150.945 106.371 150.809 106.676 150.535C106.98 150.254 107.133 149.859 107.133 149.352C107.133 148.891 106.965 148.516 106.629 148.227C106.293 147.938 105.867 147.793 105.351 147.793C105.07 147.793 104.789 147.809 104.508 147.84V146.574C104.711 146.59 104.976 146.598 105.305 146.598C105.719 146.598 106.07 146.469 106.359 146.211C106.656 145.953 106.805 145.598 106.805 145.145C106.805 144.746 106.68 144.422 106.43 144.172C106.18 143.914 105.863 143.785 105.48 143.785C104.808 143.785 104.316 144.23 104.004 145.121L102.738 144.723C102.902 144.074 103.23 143.547 103.722 143.141C104.222 142.727 104.84 142.52 105.574 142.52C106.433 142.52 107.117 142.754 107.625 143.223C108.133 143.684 108.387 144.273 108.387 144.992C108.387 145.469 108.262 145.895 108.012 146.27C107.769 146.645 107.469 146.926 107.109 147.113C107.539 147.262 107.914 147.527 108.234 147.91C108.562 148.285 108.726 148.766 108.726 149.352C108.726 150.25 108.437 150.953 107.859 151.461C107.289 151.961 106.523 152.211 105.562 152.211C104.789 152.211 104.133 152.008 103.594 151.602C103.062 151.195 102.707 150.703 102.527 150.125ZM109.84 152V142.73H111.387V146.926H111.41L115.008 142.73H116.965L113.379 146.785L117.059 152H115.195L112.406 147.875L111.387 149.035V152H109.84Z" fill="white"/>
<path d="M0.404297 11.4648L6.50391 2.20117H8.24414V11.4297H10.0195V13.082H8.24414V16.1406H6.24023V13.082H0.404297V11.4648ZM2.32031 11.4297H6.24023V7.14062C6.24023 6.47266 6.26367 5.82813 6.31055 5.20703H6.24023C6.11133 5.44141 5.91211 5.76953 5.64258 6.19141C5.38477 6.61328 5.23828 6.85352 5.20312 6.91211L2.32031 11.4297ZM10.5236 13.3633L12.1408 12.7656C12.7384 14.0312 13.6584 14.6641 14.9005 14.6641C15.6271 14.6641 16.2306 14.4473 16.7111 14.0137C17.2033 13.5684 17.4494 12.9414 17.4494 12.1328C17.4494 11.3828 17.1798 10.7852 16.6408 10.3398C16.1134 9.89453 15.4455 9.67188 14.6369 9.67188C14.297 9.67188 13.8986 9.68945 13.4416 9.72461V8.08984C13.7228 8.11328 14.0978 8.125 14.5666 8.125C15.2345 8.125 15.797 7.91992 16.2541 7.50977C16.7111 7.09961 16.9396 6.53711 16.9396 5.82227C16.9396 5.20117 16.7404 4.69141 16.342 4.29297C15.9435 3.88281 15.4338 3.67773 14.8127 3.67773C13.758 3.67773 12.9845 4.33984 12.4923 5.66406L10.84 5.1543C11.0978 4.22852 11.5783 3.47852 12.2814 2.9043C12.9845 2.31836 13.8693 2.02539 14.9357 2.02539C16.1779 2.02539 17.1681 2.36523 17.9064 3.04492C18.6447 3.72461 19.0138 4.58594 19.0138 5.62891C19.0138 6.36719 18.8205 7.01172 18.4338 7.5625C18.0588 8.11328 17.5959 8.51758 17.0451 8.77539C17.713 8.98633 18.2931 9.37891 18.7853 9.95312C19.2892 10.5156 19.5412 11.2422 19.5412 12.1328C19.5412 13.4453 19.1193 14.4707 18.2755 15.209C17.4318 15.9473 16.3127 16.3164 14.9181 16.3164C13.8166 16.3164 12.8791 16.0352 12.1056 15.4727C11.3322 14.8984 10.8048 14.1953 10.5236 13.3633ZM20.7132 18.9883L22.3128 13.4863H24.6683L22.2777 18.9883H20.7132ZM29.1274 5.82227C29.1274 6.4668 29.3208 6.98828 29.7075 7.38672C30.1059 7.78516 30.5923 7.98438 31.1665 7.98438C31.7524 7.98438 32.2329 7.78516 32.6079 7.38672C32.9946 6.97656 33.188 6.45508 33.188 5.82227C33.188 5.21289 33.0005 4.70313 32.6255 4.29297C32.2505 3.88281 31.7641 3.67773 31.1665 3.67773C30.5571 3.67773 30.0649 3.88281 29.6899 4.29297C29.3149 4.70313 29.1274 5.21289 29.1274 5.82227ZM26.6489 12.2734C26.6489 11.3477 26.8891 10.5918 27.3696 10.0059C27.8618 9.41992 28.436 9.00391 29.0923 8.75781C27.7446 8.11328 27.0708 7.10547 27.0708 5.73438C27.0708 4.66797 27.4575 3.7832 28.2309 3.08008C29.0161 2.37695 29.9946 2.02539 31.1665 2.02539C32.3384 2.02539 33.311 2.37695 34.0845 3.08008C34.8696 3.7832 35.2622 4.66797 35.2622 5.73438C35.2622 6.47266 35.0688 7.09375 34.6821 7.59766C34.2954 8.10156 33.8091 8.48828 33.2231 8.75781C33.9145 9.00391 34.5005 9.42578 34.9809 10.0234C35.4614 10.6211 35.7016 11.377 35.7016 12.291C35.7016 13.4863 35.2798 14.459 34.436 15.209C33.5923 15.9473 32.5024 16.3164 31.1665 16.3164C29.9009 16.3164 28.8286 15.959 27.9497 15.2441C27.0825 14.5176 26.6489 13.5273 26.6489 12.2734ZM28.7055 12.168C28.7055 12.8828 28.9341 13.4805 29.3911 13.9609C29.8598 14.4297 30.4516 14.6641 31.1665 14.6641C31.8813 14.6641 32.4673 14.4297 32.9243 13.9609C33.393 13.4805 33.6274 12.8828 33.6274 12.168C33.6274 11.4648 33.393 10.8672 32.9243 10.375C32.4673 9.87109 31.8813 9.61914 31.1665 9.61914C30.4634 9.61914 29.8774 9.86523 29.4087 10.3574C28.9399 10.8496 28.7055 11.4531 28.7055 12.168ZM37.5416 6.10352V4.57422H38.1393C39.9791 4.57422 40.8991 3.91211 40.8991 2.58789V2.21875H42.6393V16.1582H40.5827V6.10352H37.5416ZM48.698 9.17969C48.698 10.2461 48.7684 11.1719 48.909 11.957C49.0496 12.7422 49.3016 13.3926 49.6648 13.9082C50.0398 14.4121 50.5086 14.6641 51.0711 14.6641C51.5047 14.6641 51.8738 14.5176 52.1785 14.2246C52.4949 13.9199 52.7352 13.498 52.8992 12.959C53.075 12.4199 53.198 11.8457 53.2684 11.2363C53.3504 10.6152 53.3914 9.92969 53.3914 9.17969C53.3914 8.40625 53.3504 7.69727 53.2684 7.05273C53.1863 6.4082 53.0516 5.82813 52.8641 5.3125C52.6883 4.79687 52.4422 4.39844 52.1258 4.11719C51.8211 3.82422 51.4578 3.67773 51.0359 3.67773C50.4852 3.67773 50.0281 3.93555 49.6648 4.45117C49.3016 4.95508 49.0496 5.60547 48.909 6.40234C48.7684 7.1875 48.698 8.11328 48.698 9.17969ZM46.6238 9.17969C46.6238 7.85547 46.7527 6.70703 47.0105 5.73438C47.2684 4.76172 47.6199 4.01758 48.0652 3.50195C48.5105 2.98633 48.9793 2.61133 49.4715 2.37695C49.9637 2.14258 50.4852 2.02539 51.0359 2.02539C52.4422 2.02539 53.532 2.65234 54.3055 3.90625C55.0789 5.14844 55.4656 6.90625 55.4656 9.17969C55.4656 11.3477 55.0906 13.082 54.3406 14.3828C53.6023 15.6719 52.5125 16.3164 51.0711 16.3164C50.5203 16.3164 49.9988 16.1992 49.5066 15.9648C49.0145 15.7305 48.5457 15.3555 48.1004 14.8398C47.6551 14.3242 47.2977 13.5801 47.0281 12.6074C46.7586 11.6348 46.6238 10.4922 46.6238 9.17969ZM57.7099 16V13.4863H60.417V16H57.7099ZM62.6437 13.5742L64.3136 12.959C64.5363 13.4629 64.8644 13.873 65.298 14.1895C65.7316 14.5059 66.212 14.6641 66.7394 14.6641C67.5128 14.6641 68.1222 14.4004 68.5675 13.873C69.0245 13.3457 69.253 12.6543 69.253 11.7988C69.253 10.9551 69.0128 10.2637 68.5323 9.72461C68.0519 9.18555 67.4366 8.91602 66.6866 8.91602C65.796 8.91602 65.0109 9.33203 64.3312 10.1641L63.0831 9.67188L63.7863 2.3418H70.5538V3.99414H65.632L65.1925 7.93164C65.8136 7.49805 66.546 7.28125 67.3898 7.28125C68.5499 7.28125 69.4933 7.68555 70.2198 8.49414C70.9581 9.30273 71.3273 10.3926 71.3273 11.7637C71.3273 12.3496 71.2394 12.9062 71.0636 13.4336C70.8878 13.9609 70.6241 14.4473 70.2726 14.8926C69.921 15.3262 69.4464 15.6719 68.8488 15.9297C68.2511 16.1875 67.5655 16.3164 66.7921 16.3164C65.7843 16.3164 64.9288 16.0703 64.2257 15.5781C63.5343 15.0742 63.007 14.4062 62.6437 13.5742ZM74.9954 5.82227C74.9954 6.4668 75.1888 6.98828 75.5755 7.38672C75.9739 7.78516 76.4602 7.98438 77.0345 7.98438C77.6204 7.98438 78.1009 7.78516 78.4759 7.38672C78.8626 6.97656 79.0559 6.45508 79.0559 5.82227C79.0559 5.21289 78.8684 4.70313 78.4934 4.29297C78.1184 3.88281 77.6321 3.67773 77.0345 3.67773C76.4251 3.67773 75.9329 3.88281 75.5579 4.29297C75.1829 4.70313 74.9954 5.21289 74.9954 5.82227ZM72.5169 12.2734C72.5169 11.3477 72.7571 10.5918 73.2376 10.0059C73.7298 9.41992 74.304 9.00391 74.9602 8.75781C73.6126 8.11328 72.9388 7.10547 72.9388 5.73438C72.9388 4.66797 73.3255 3.7832 74.0989 3.08008C74.8841 2.37695 75.8626 2.02539 77.0345 2.02539C78.2063 2.02539 79.179 2.37695 79.9524 3.08008C80.7376 3.7832 81.1302 4.66797 81.1302 5.73438C81.1302 6.47266 80.9368 7.09375 80.5501 7.59766C80.1634 8.10156 79.677 8.48828 79.0911 8.75781C79.7825 9.00391 80.3684 9.42578 80.8489 10.0234C81.3294 10.6211 81.5696 11.377 81.5696 12.291C81.5696 13.4863 81.1477 14.459 80.304 15.209C79.4602 15.9473 78.3704 16.3164 77.0345 16.3164C75.7688 16.3164 74.6966 15.959 73.8177 15.2441C72.9505 14.5176 72.5169 13.5273 72.5169 12.2734ZM74.5735 12.168C74.5735 12.8828 74.802 13.4805 75.2591 13.9609C75.7278 14.4297 76.3196 14.6641 77.0345 14.6641C77.7493 14.6641 78.3352 14.4297 78.7923 13.9609C79.261 13.4805 79.4954 12.8828 79.4954 12.168C79.4954 11.4648 79.261 10.8672 78.7923 10.375C78.3352 9.87109 77.7493 9.61914 77.0345 9.61914C76.3313 9.61914 75.7454 9.86523 75.2766 10.3574C74.8079 10.8496 74.5735 11.4531 74.5735 12.168Z" fill="#20C997"/>
<path d="M0.875977 28.9756C1.45996 27.6383 2.33171 26.9697 3.49121 26.9697C3.83822 26.9697 4.16829 27.0586 4.48145 27.2363C4.7946 27.4141 5.0485 27.6087 5.24316 27.8203C5.44629 28.0234 5.67057 28.2139 5.91602 28.3916C6.16992 28.5693 6.41536 28.6582 6.65234 28.6582C6.88086 28.6582 7.07975 28.6201 7.24902 28.5439C7.42676 28.4678 7.58333 28.3408 7.71875 28.1631C7.85417 27.9769 7.94303 27.8457 7.98535 27.7695C8.02767 27.6934 8.09961 27.541 8.20117 27.3125C8.22656 27.2702 8.24349 27.2363 8.25195 27.2109L9.25488 27.6934C8.65397 29.0306 7.79492 29.6992 6.67773 29.6992C6.33073 29.6992 5.99642 29.6104 5.6748 29.4326C5.35319 29.2549 5.09082 29.0645 4.8877 28.8613C4.69303 28.6497 4.46875 28.4551 4.21484 28.2773C3.96094 28.0996 3.71973 28.0107 3.49121 28.0107C2.84798 28.0107 2.31478 28.4932 1.8916 29.458L0.875977 28.9756ZM13.221 31.1465L14.1351 30.6895C14.389 31.0788 14.7191 31.3919 15.1253 31.6289C15.54 31.8659 15.9632 31.9844 16.3948 31.9844C16.9027 31.9844 17.3258 31.8574 17.6644 31.6035C18.0029 31.3411 18.1722 30.9561 18.1722 30.4482C18.1722 30.2451 18.1341 30.0589 18.0579 29.8896C17.9818 29.7204 17.8971 29.5807 17.804 29.4707C17.7194 29.3607 17.5628 29.2422 17.3343 29.1152C17.1142 28.9883 16.9323 28.891 16.7884 28.8232C16.653 28.7555 16.416 28.654 16.0775 28.5186C15.7389 28.3747 15.485 28.2646 15.3157 28.1885C14.6979 27.9092 14.2366 27.5791 13.932 27.1982C13.6357 26.8174 13.4876 26.3392 13.4876 25.7637C13.4876 25.2051 13.6907 24.693 14.097 24.2275C14.5032 23.7536 15.0745 23.4701 15.8109 23.377V22.2979H16.928V23.3896C17.402 23.4235 17.8548 23.6012 18.2864 23.9229C18.7181 24.2445 19.0143 24.5915 19.1751 24.9639L18.2484 25.4082C17.749 24.6973 17.1227 24.3418 16.3695 24.3418C15.8616 24.3418 15.4554 24.4772 15.1507 24.748C14.8545 25.0189 14.7064 25.3617 14.7064 25.7764C14.7064 26.0218 14.7402 26.2292 14.8079 26.3984C14.8841 26.5677 15.0576 26.7412 15.3284 26.9189C15.5993 27.0882 15.7939 27.2025 15.9124 27.2617C16.0394 27.3125 16.3483 27.4395 16.8392 27.6426C16.9661 27.7018 17.0635 27.7441 17.1312 27.7695C17.4528 27.8965 17.7279 28.0277 17.9564 28.1631C18.1933 28.2985 18.4303 28.4678 18.6673 28.6709C18.9043 28.8656 19.0863 29.1068 19.2132 29.3945C19.3402 29.6823 19.4036 29.9997 19.4036 30.3467C19.4036 31.0915 19.1709 31.6924 18.7054 32.1494C18.2484 32.6064 17.6559 32.8815 16.928 32.9746V33.9775H15.8109V32.9492C15.3115 32.9069 14.8164 32.7207 14.3255 32.3906C13.8346 32.0605 13.4665 31.6458 13.221 31.1465ZM20.0727 29.877L24.4653 23.1992H25.5571V29.8516H26.8901V30.8672H25.5571V33.1143H24.3257V30.8672H20.0727V29.877ZM21.2661 29.8516H24.3257V26.5C24.3257 25.9922 24.3426 25.5055 24.3764 25.04H24.3257C24.3257 25.04 24.0591 25.4717 23.5259 26.335L21.2661 29.8516ZM27.1657 31.2354L28.1813 30.8418C28.6214 31.7559 29.3069 32.2129 30.2379 32.2129C30.7965 32.2129 31.262 32.0479 31.6344 31.7178C32.0153 31.3792 32.2057 30.901 32.2057 30.2832C32.2057 29.7077 31.9983 29.2549 31.5836 28.9248C31.1689 28.5863 30.6569 28.417 30.0475 28.417C29.8105 28.417 29.5397 28.4297 29.235 28.4551V27.4395C29.4297 27.4564 29.6836 27.4648 29.9967 27.4648C30.5215 27.4648 30.9573 27.3125 31.3043 27.0078C31.6513 26.6947 31.8248 26.2673 31.8248 25.7256C31.8248 25.2516 31.6725 24.8623 31.3678 24.5576C31.0631 24.2445 30.6696 24.0879 30.1871 24.0879C29.4 24.0879 28.8161 24.5703 28.4352 25.5352L27.4196 25.2051C27.6142 24.5788 27.9485 24.071 28.4225 23.6816C28.9049 23.2839 29.5143 23.085 30.2506 23.085C31.1224 23.085 31.8121 23.3262 32.32 23.8086C32.8362 24.2826 33.0944 24.8835 33.0944 25.6113C33.0944 26.153 32.9505 26.6227 32.6627 27.0205C32.375 27.4098 32.028 27.6934 31.6217 27.8711C32.1126 28.015 32.5442 28.29 32.9166 28.6963C33.289 29.1025 33.4752 29.6315 33.4752 30.2832C33.4752 31.2142 33.179 31.9378 32.5866 32.4541C32.0026 32.9704 31.2239 33.2285 30.2506 33.2285C29.4889 33.2285 28.8372 33.0381 28.2955 32.6572C27.7539 32.2679 27.3773 31.7939 27.1657 31.2354ZM34.2713 35.1836L35.3758 31.3369H36.9373L35.2488 35.1836H34.2713ZM39.917 25.7383C39.917 26.2292 40.0693 26.6227 40.374 26.9189C40.6787 27.2152 41.0553 27.3633 41.5039 27.3633C41.9694 27.3633 42.3502 27.2109 42.6464 26.9062C42.9511 26.6016 43.1035 26.2122 43.1035 25.7383C43.1035 25.2643 42.9511 24.8708 42.6464 24.5576C42.3502 24.2445 41.9694 24.0879 41.5039 24.0879C41.0299 24.0879 40.6448 24.2487 40.3486 24.5703C40.0608 24.8919 39.917 25.2812 39.917 25.7383ZM38.3427 30.3848C38.3427 29.7077 38.5162 29.1576 38.8632 28.7344C39.2187 28.3112 39.6461 28.015 40.1455 27.8457C39.1468 27.3887 38.6474 26.665 38.6474 25.6748C38.6474 24.9385 38.914 24.3249 39.4472 23.834C39.9889 23.3346 40.6744 23.085 41.5039 23.085C42.3164 23.085 42.9977 23.3304 43.5478 23.8213C44.0979 24.3122 44.373 24.93 44.373 25.6748C44.373 26.2249 44.2291 26.682 43.9414 27.0459C43.6536 27.4014 43.2981 27.668 42.875 27.8457C43.3912 28.015 43.8229 28.3154 44.1699 28.7471C44.5254 29.1787 44.7031 29.7288 44.7031 30.3975C44.7031 31.2269 44.4026 31.9082 43.8017 32.4414C43.2008 32.9661 42.4349 33.2285 41.5039 33.2285C40.6152 33.2285 39.8662 32.9746 39.2568 32.4668C38.6474 31.9505 38.3427 31.2565 38.3427 30.3848ZM39.6123 30.3213C39.6123 30.8714 39.79 31.3242 40.1455 31.6797C40.5009 32.0352 40.9537 32.2129 41.5039 32.2129C42.054 32.2129 42.511 32.0352 42.875 31.6797C43.2389 31.3158 43.4209 30.863 43.4209 30.3213C43.4209 29.7796 43.2347 29.3184 42.8623 28.9375C42.4983 28.5566 42.0455 28.3662 41.5039 28.3662C40.9707 28.3662 40.5221 28.5566 40.1582 28.9375C39.7942 29.3099 39.6123 29.7712 39.6123 30.3213ZM46.007 25.7891V24.8496H46.4132C47.1495 24.8496 47.6573 24.7311 47.9366 24.4941C48.2159 24.2487 48.3556 23.9144 48.3556 23.4912V23.2119H49.422V33.127H48.1525V25.7891H46.007ZM53.5823 28.1631C53.5823 28.9587 53.6373 29.6484 53.7473 30.2324C53.8658 30.8164 54.0647 31.2946 54.344 31.667C54.6233 32.0309 54.9788 32.2129 55.4104 32.2129C55.7405 32.2129 56.024 32.1029 56.261 31.8828C56.5065 31.6628 56.6927 31.3581 56.8196 30.9688C56.955 30.571 57.0524 30.1436 57.1116 29.6865C57.1708 29.2295 57.2005 28.7217 57.2005 28.1631C57.2005 26.9359 57.0524 25.9499 56.7561 25.2051C56.4599 24.4603 56.0029 24.0879 55.385 24.0879C54.7672 24.0879 54.3102 24.4561 54.0139 25.1924C53.7262 25.9287 53.5823 26.9189 53.5823 28.1631ZM52.3128 28.1631C52.3128 27.2406 52.4016 26.4365 52.5794 25.751C52.7571 25.0654 52.9941 24.5365 53.2903 24.1641C53.595 23.7917 53.9208 23.5208 54.2679 23.3516C54.6149 23.1738 54.9873 23.085 55.385 23.085C56.3583 23.085 57.1158 23.5251 57.6575 24.4053C58.1992 25.2855 58.47 26.5381 58.47 28.1631C58.47 29.6865 58.2119 30.9137 57.6956 31.8447C57.1878 32.7673 56.4261 33.2285 55.4104 33.2285C55.0126 33.2285 54.636 33.1396 54.2805 32.9619C53.9335 32.7842 53.6077 32.5049 53.303 32.124C52.9983 31.7432 52.7571 31.2142 52.5794 30.5371C52.4016 29.86 52.3128 29.0687 52.3128 28.1631ZM60.0659 33V31.3369H61.8432V33H60.0659ZM63.401 31.3496L64.4293 30.9814C64.607 31.3538 64.8567 31.6543 65.1783 31.8828C65.4999 32.1029 65.8596 32.2129 66.2574 32.2129C66.8583 32.2129 67.3281 32.014 67.6666 31.6162C68.0051 31.2184 68.1744 30.7021 68.1744 30.0674C68.1744 29.4242 67.9924 28.9036 67.6285 28.5059C67.2646 28.0996 66.7949 27.8965 66.2193 27.8965C65.5423 27.8965 64.954 28.1842 64.4547 28.7598L63.693 28.4678L64.2008 23.3135H68.8854V24.3291H65.3307L65.0006 27.3887C65.4745 27.0586 66.0247 26.8936 66.651 26.8936C67.4719 26.8936 68.1406 27.1771 68.6568 27.7441C69.1816 28.3112 69.4439 29.0729 69.4439 30.0293C69.4439 30.9095 69.1773 31.6628 68.6441 32.2891C68.1109 32.9154 67.3238 33.2285 66.2828 33.2285C65.5888 33.2285 64.9964 33.0592 64.5055 32.7207C64.023 32.3737 63.6549 31.9167 63.401 31.3496ZM71.8523 25.7383C71.8523 26.2292 72.0046 26.6227 72.3093 26.9189C72.614 27.2152 72.9906 27.3633 73.4392 27.3633C73.9047 27.3633 74.2856 27.2109 74.5818 26.9062C74.8865 26.6016 75.0388 26.2122 75.0388 25.7383C75.0388 25.2643 74.8865 24.8708 74.5818 24.5576C74.2856 24.2445 73.9047 24.0879 73.4392 24.0879C72.9653 24.0879 72.5802 24.2487 72.2839 24.5703C71.9962 24.8919 71.8523 25.2812 71.8523 25.7383ZM70.2781 30.3848C70.2781 29.7077 70.4516 29.1576 70.7986 28.7344C71.1541 28.3112 71.5815 28.015 72.0808 27.8457C71.0821 27.3887 70.5828 26.665 70.5828 25.6748C70.5828 24.9385 70.8494 24.3249 71.3826 23.834C71.9242 23.3346 72.6098 23.085 73.4392 23.085C74.2517 23.085 74.933 23.3304 75.4832 23.8213C76.0333 24.3122 76.3084 24.93 76.3084 25.6748C76.3084 26.2249 76.1645 26.682 75.8767 27.0459C75.589 27.4014 75.2335 27.668 74.8103 27.8457C75.3266 28.015 75.7582 28.3154 76.1052 28.7471C76.4607 29.1787 76.6384 29.7288 76.6384 30.3975C76.6384 31.2269 76.338 31.9082 75.7371 32.4414C75.1362 32.9661 74.3702 33.2285 73.4392 33.2285C72.5505 33.2285 71.8015 32.9746 71.1921 32.4668C70.5828 31.9505 70.2781 31.2565 70.2781 30.3848ZM71.5476 30.3213C71.5476 30.8714 71.7253 31.3242 72.0808 31.6797C72.4363 32.0352 72.8891 32.2129 73.4392 32.2129C73.9893 32.2129 74.4464 32.0352 74.8103 31.6797C75.1742 31.3158 75.3562 30.863 75.3562 30.3213C75.3562 29.7796 75.17 29.3184 74.7976 28.9375C74.4337 28.5566 73.9809 28.3662 73.4392 28.3662C72.906 28.3662 72.4574 28.5566 72.0935 28.9375C71.7296 29.3099 71.5476 29.7712 71.5476 30.3213Z" fill="#7D8696"/>
</svg>
