<svg width="18" height="20" viewBox="0 0 18 20" fill="none" xmlns="http://www.w3.org/2000/svg">
<path fill-rule="evenodd" clip-rule="evenodd" d="M1.80011 9.93616H1.06266e-05L0 6.33607C0 5.46093 0.347569 4.62158 0.966583 4.00278C1.58538 3.38378 2.42474 3.0362 3.30009 3.0362H6.52796L4.75802 1.27188L6.02991 0L9.33 3.30009C9.5041 3.47396 9.59932 3.71169 9.59367 3.95756C9.58802 4.20343 9.48192 4.43634 9.30007 4.60208L5.99999 7.60206L4.8001 6.27012L6.37209 4.83602H3.30011C2.90229 4.83602 2.52059 4.99422 2.23935 5.27547C1.9581 5.55672 1.80011 5.93821 1.80011 6.33602V9.93616ZM12.1104 1.34645C12.7574 0.699441 13.6348 0.335952 14.5499 0.335938C15.4646 0.336795 16.3416 0.700489 16.9884 1.34731C17.6353 1.99412 17.999 2.87114 17.9998 3.78602C17.9998 4.70091 17.6363 5.57857 16.9893 6.22538C16.3423 6.87241 15.4648 7.23589 14.5499 7.23589C13.6348 7.23589 12.7574 6.87242 12.1104 6.22538C11.4633 5.57857 11.0999 4.70091 11.0999 3.78602C11.0999 2.87092 11.4633 1.99347 12.1104 1.34645ZM16.1999 12.9364C16.1999 13.3342 16.0419 13.7157 15.7606 13.9969C15.4794 14.2782 15.0977 14.4364 14.6999 14.4364H11.472L13.2361 12.6723L11.9642 11.4004L8.66413 14.7005L8.66392 14.7003C8.49547 14.8692 8.40088 15.0979 8.40088 15.3362C8.40088 15.5748 8.49547 15.8035 8.66392 15.9724L11.964 19.2725L13.2359 18.0006L11.472 16.2363H14.6999C15.5752 16.2363 16.4146 15.8887 17.0334 15.2697C17.6524 14.6509 18 13.8115 18 12.9364V8.73633H16.1999L16.1999 12.9364ZM3.44999 12.0362C2.53511 12.0362 1.65767 12.3997 1.01063 13.0467C0.363602 13.6935 0.00012207 14.5712 0.00012207 15.4861C0.00012207 16.4012 0.363613 17.2786 1.01063 17.9256C1.65766 18.5727 2.53511 18.9361 3.44999 18.9361C4.36509 18.9361 5.24254 18.5727 5.88957 17.9256C6.5366 17.2786 6.90008 16.4012 6.90008 15.4861C6.89924 14.5714 6.53554 13.6944 5.88871 13.0475C5.24189 12.4007 4.36488 12.037 3.44999 12.0361V12.0362Z" fill="#1F62F1"/>
</svg>
